<svg xmlns="http://www.w3.org/2000/svg" viewBox="0 0 209 218.1">
    <g id="icon">
        <circle cx="104.5" cy="104.5" r="104.5" style="fill:#ffdedc"/>
        <path d="M152.7,55.2s17,.1,22,19.3c3.3,12.9,6,18.9,9.3,22.5,0,0-14.6,11.1-29.2,9.2Z" style="fill:#ff3a38"/>
        <path d="M175.5,102.1s-5.8-2.8-8.4-20.4c-1.6-10.4-7.8-20.3-7.8-20.3s6.5,34.2-6.2,45.4C153.2,106.7,166.4,107,175.5,102.1Z" style="opacity:0.09;isolation:isolate"/>
        <path d="M141.7,57.4s-19.3,1.3-20.2,34.8c-.1,3.3.7,13.1.7,13.1s14.2,3.4,27.7.5-6.1-37.5-6.1-37.5Z" style="fill:#ff3a38"/>
        <path d="M141.5,100.6l18.2.4s-.3,15.7,12,17.9c0,0-5.9,1.3-16.3,10.4-.5.4-2.4,8.1-5.4,7.5s-5.7-10.3-8.9-11.8c-3.9-1.8-8.5-3.6-10-6.5C131.1,118.6,140.8,119.7,141.5,100.6Z" style="fill:#f6e7e8"/>
        <path d="M141.5,100.6l18.2,2.3.3,1.8s-6.1,6.4-19,.8Z" style="opacity:0.09;isolation:isolate"/>
        <path d="M166.4,80.2s5,18.6-6.1,26.1l-.6-3.3Z" style="opacity:0.08;isolation:isolate"/>
        <path d="M131.8,85.5s-1.2,13.2,1.7,21.5c0,0,7.4.2,8,0V97.7s-6.7-8.6-7.6-12.4S131.8,85.5,131.8,85.5Z" style="opacity:0.1;isolation:isolate"/>
        <path d="M52.3,100.3l18.2.4s-.3,15.7,12,17.9c0,0,.5,13.7-12.4,13.9-15.3.2-22.2-6.1-26.5-14C43.6,118.6,52.7,117.1,52.3,100.3Z" style="fill:#f6f1f1"/>
        <path d="M106.5,132.5c9.7-9.3,22.2-13.3,22.2-13.3l9.6-5s-.3,5.1,9.4,9.6c1.5.7,5.9,3.2,5.9,3.2.3,0,3.1-2.3,5.8-5,0,0,5.5-3.9,5.2-6.9l17,8.6s13.6,4,17.8,21.6c3.2,13.6,5.2,37.6,5.2,37.6,2,4,2,8.6,1.7,12.3a18.51,18.51,0,0,1-6.7,13.7c-4,2.9-9.9,2.7-9.9,2.7l-95.3-2.4C94.4,209.4,96.8,141.7,106.5,132.5Z" style="fill:#fff"/>
        <path d="M106.5,132.5c9.7-9.3,25.4-15.3,25.4-15.3l6.6-3.1s.4,4.6,7,8.5c2,1.2,6.9,3.1,8.2,4.5a63.4,63.4,0,0,0,5.8-5s5.5-3.9,5.2-6.9c0,0,11.9,5.8,15.9,7.7,6.7,2.5,15.3,8.6,18.8,22.5,0,0,3.3,14.3,5.2,37.5,0,0,7,17-5,26-3.8,3-9.8,2.7-9.8,2.7l-95.3-2.4C94.4,209.4,96.8,141.7,106.5,132.5Z" style="opacity:0.47;isolation:isolate;fill:#ff3a38"/>
        <polygon points="190.7 208.6 186.2 169 164.8 167.5 170 210.2 190.7 208.6" style="opacity:0.09;isolation:isolate"/>
        <polygon points="192.6 205.5 188.1 165.9 166.6 164.4 175.1 212.2 192.6 205.5" style="fill:#fff"/>
        <circle cx="151.1" cy="132.9" r="1.2" style="fill:#c16460;stroke:#c16460;stroke-miterlimit:10"/>
        <circle cx="150.7" cy="150.5" r="1.2" style="fill:#c16460;stroke:#c16460;stroke-miterlimit:10"/>
        <circle cx="150.7" cy="168.6" r="1.2" style="fill:#c16460;stroke:#c16460;stroke-miterlimit:10"/>
        <circle cx="150.7" cy="186.3" r="1.2" style="fill:#c16460;stroke:#c16460;stroke-miterlimit:10"/>
        <circle cx="150.7" cy="203.6" r="1.2" style="fill:#c16460;stroke:#c16460;stroke-miterlimit:10"/>
        <path d="M189.7,211.8c1.2-.8,4.3-4.7,2.7-10.3l-7.5.4-15.4,4.7-.2-1.5s-2.8,1.1-1.3,4.3a2.78,2.78,0,0,0,0,1.7" style="opacity:0.09;isolation:isolate"/>
        <path d="M170.6,206s-2.8.7-1.3,3.8a2.87,2.87,0,0,0,1.3,3.3s.3,2.3,2.1,2.9c0,0-.5,1.4,3,2.1,0,0,4.1,0,5.4-.5,1.7-.7,5.6-4.4,5.6-4.4s3.7-.9,4.8-1.7,5.6-3.2,2.8-10.1c-.3-.8-2.5-2.5-2.5-2.5l-8.2,3Z" style="fill:#f6e7e8"/>
        <path d="M153.6,127.1l-5,1.5s-12.1-2-16.3-11.1c0,0,3.4,10.6,16.3,12.3l4.1-1.7.4,1.8.6,28.9.2-26.4Z" style="opacity:0.09;isolation:isolate"/>
        <path d="M153.9,132.6l-.3-5.6,7.7,1.5s4.2-2.9,8.7-10.6a19.57,19.57,0,0,1-8.8,12l-6.8-1.7Z" style="opacity:0.09;isolation:isolate"/>
        <polygon points="153.7 132.9 155.5 210.9 153.6 210.8 153.7 132.9" style="opacity:0.09;isolation:isolate"/>
        <path d="M105.2,131.1s16.2,7.2,19.6,58.6V192a9.12,9.12,0,0,1,2.8,7.5s2.4,3.9.7,5.5c0,0,1.1,1.6.6,2.3h-3.7l-20-66.7v-9.5Z" style="opacity:0.09;isolation:isolate"/>
        <path d="M126.6,205c2.1-3.5-.9-4.1-.7-4.7a8.3,8.3,0,0,0-2.4-7.2l.1-.3c-3.4-19.6-3.8-40.7-13.4-55.8-8.6-13.4-32.1-19.9-32.1-19.9-1.3,10.9-17,8.8-17,8.8-12.5-.5-14.4-8.9-14.4-8.9-18.7,6.5-27.2,14.7-32.4,21.6-9.6,12.8-3.5,52.2-3.5,52.2a8.14,8.14,0,0,0-2.7,7.4c.1.6-2.9,1.2-.7,4.7,0,0-2.3,2.9,0,5.2l1,1.6H23.7l76.5.9,13-.4h13.4C129,207.9,126.6,205,126.6,205Z" style="fill:#ff3a38"/>
        <path d="M70.6,103.9s-9.7,7.7-18.9,3.2a18.34,18.34,0,0,0,.3-2.5c.1-1,.3-3.9.3-3.9l18.2.4Z" style="opacity:0.09;isolation:isolate"/>
        <path d="M46.4,82.5s-3.3,1.1-4.3-4c0,0-1.4-5.1,1.9-5.9,0,0-1.7-18.5,6-22.9,6-3.5,23-4.1,26.5,7.1,1.1,3.6,1.2,16.3,1.2,16.3s3.3-.8,2.4,4.1a7.83,7.83,0,0,1-3.2,5l-1,.9s.7,12.2-1.9,15.1-5.8,4.6-11.8,5.2c-3.4.3-11.5-1.7-13.6-6S46.4,82.5,46.4,82.5Z" style="fill:#f6f1f1"/>
        <path d="M53.8,53c1.7.8,2.3,3.7,7.2,3.9,3.4.1,4-2.7,7.8-3.9,1.5-.4,4.8.3,6.3,4.3a68.06,68.06,0,0,1,2.4,10.2s1.3-16.5-8.6-20c-6.6-2.3-11.2-2.8-18.9,1.1-3.4,1.7-7.5,6.9-6.2,21.2C43.8,69.9,46.4,49.7,53.8,53Z" style="fill:#222"/>
        <g style="opacity:0.09">
            <path d="M76.7,72.3h-.4a2.57,2.57,0,0,0-2.7-2.4H64.8a2.5,2.5,0,0,0-2.7,2.3,8.1,8.1,0,0,0-2.2,0,2.63,2.63,0,0,0-2.7-2.3H48.4a2.57,2.57,0,0,0-2.7,2.4h-.4m-1.3,0h0l-.1,1h1.7v1a4.72,4.72,0,0,0,5,4.4h2.2c3.6,0,6.6-2.4,7-5.5a4.48,4.48,0,0,1,2.3,0,7,7,0,0,0,7,5.5h2.2c2.7,0,5-2,5-4.4v-1H78v-1h-.1M52.7,77.7H50.5a3.6,3.6,0,0,1-3.8-3.4v-2a1.59,1.59,0,0,1,1.7-1.5h8.8a1.66,1.66,0,0,1,1.7,1.5A6.12,6.12,0,0,1,52.7,77.7Zm22.5-3.5a3.6,3.6,0,0,1-3.8,3.4H69.2c-3.3,0-6-2.4-6-5.4a1.59,1.59,0,0,1,1.7-1.5h8.8a1.66,1.66,0,0,1,1.7,1.5l-.2,2Z"/>
        </g>
        <path d="M59.9,76.9s-.3,3.8-2.5,5a9.17,9.17,0,0,0-2.1,1.3c-.7.5-1.3,2.1-.6,2.8a4.29,4.29,0,0,0,4.4.2" style="opacity:0.52;stroke-width:2px;stroke:#ff7774;fill:none;stroke-linecap:round;stroke-linejoin:round;isolation:isolate"/>
        <circle cx="53.2" cy="72.9" r="1.6" style="fill:#222"/>
        <circle cx="68.5" cy="72.9" r="1.6" style="fill:#222"/>
        <path d="M43.9,70.5S43.2,55.2,50.5,50c0,0,16.9-3.2,20.6.2,5.6,5.1,5.6,14.6,6.4,19.1,0,0,2.4-22.3-9.3-23.6-7.6-.8-16.3-.7-18.9.3C49.4,46.1,41.4,47.5,43.9,70.5Z" style="fill:#222"/>
        <path d="M64.3,64.5s4.6-4.5,8.2,0" style="stroke:#804647;stroke-width:2px;fill:none;stroke-linecap:round;stroke-linejoin:round"/>
        <path d="M49.9,61.2s2.5-3.2,8,0a7,7,0,0,0,6.1-.3c.6-.3,5.1-2.8,8.6-.4" style="stroke:#808081;fill:none;stroke-linecap:round;stroke-linejoin:round"/>
        <path d="M49.9,59s2.6-3.9,7.4-.3c1.4,1.1,4.6,1,5.8.3.6-.3,6-4,9.4-.7" style="stroke:#808081;fill:none;stroke-linecap:round;stroke-linejoin:round"/>
        <path d="M66.5,89.8a4.74,4.74,0,0,1-4.4,6.4,5.2,5.2,0,0,1-2.5-.7Z" style="fill:#ff3e41"/>
        <path d="M21.6,158.7s3.9,5,3.9,13.9l1,36.8" style="stroke-width:2px;stroke:#ff7774;fill:none;stroke-linecap:round;stroke-linejoin:round"/>
        <path d="M149.2,58.1s6.6-15.1-4.8-15.4c0,0-14-1.2-13.3,7.1.2,2.3,0,3,5.4,8.8l4.7,3.8Z" style="fill:#ff3a38"/>
        <path d="M151,51.6s-10.3,7-19.9-1.8a7.39,7.39,0,0,0,2.6,5.4l2.8,3.4L150,55.7Z" style="opacity:0.13;isolation:isolate"/>
        <path d="M167.3,76.7a32.55,32.55,0,0,0-1.7-4.7c-.5-2.5-1.6-6.5-3.7-8.6a11.74,11.74,0,0,0-2.7-2,34,34,0,0,0-4.2-4.5c-12,.4-19.3,6.4-20.6,13a60.64,60.64,0,0,0-1.1,9.8c-.7-.2-3.2-.8-4.1,2.5-.4,1.4.3,5.1,1.7,6.1a2.63,2.63,0,0,0,2.9,0h0c.7,4.1,2.2,8,4.9,10.6,2.5,2.4,11.1,6.9,17.4,5.8C167.3,102.6,168.9,82.2,167.3,76.7Z" style="fill:#f6e7e8"/>
        <ellipse cx="146.5" cy="78.6" rx="1.3" ry="1.6" style="fill:#222"/>
        <ellipse cx="160.1" cy="78.6" rx="1.3" ry="1.6" style="fill:#222"/>
        <path d="M154.2,79a23.94,23.94,0,0,0,4,5.1c1,.9,1.3,2.6-2.5,3.2" style="stroke:#804647;stroke-width:2px;fill:none;stroke-linecap:round;stroke-linejoin:round"/>
        <path d="M157.2,95.1a8,8,0,0,1-10.5-3.8" style="stroke-width:2px;stroke:#ff7774;fill:none;stroke-linecap:round;stroke-linejoin:round"/>
        <path d="M155,74a46.17,46.17,0,0,1,6.1-1.9c.6,0,1.1.2,2.3,1" style="stroke:#804647;stroke-width:2px;fill:none;stroke-linecap:round;stroke-linejoin:round"/>
        <path d="M153.8,60.5s.4,15.5-20.3,19.2l-.1-.3S152.3,68.1,153.8,60.5Z" style="opacity:0.09;isolation:isolate"/>
        <path d="M153.9,59.8s-2,14.4-20.3,19.9l-4.1-3.3s-.7-20.6,23.6-21.2Z" style="fill:#ff3a38"/>
        <path d="M151.9,60.5s8.6-1.1,11.7,5.3c2.9,5.9,2.8-1.4,2.8-1.4s-7.2-10.2-15-9S151.9,60.5,151.9,60.5Z" style="fill:#ff3a38"/>
        <path d="M188.1,166.9s-.3-11.5,0-11.5,4.6,33.2,5.1,33.1c3-.4,6,.4,7.2,2.3,0,0-8.6-1.2-9.1,5.2Z" style="opacity:0.09;isolation:isolate"/>
        <path d="M191.6,198.9h0c3,1.4,4.3,5.5,3.1,8.8a7.47,7.47,0,0,1-4,4.1S195,208,191.6,198.9Z" style="opacity:0.12;isolation:isolate;fill:#ff3a38"/>
        <path d="M78,117.1s2.3,10.5-14.3,9C63.7,126.1,75,125.2,78,117.1Z" style="opacity:0.09;isolation:isolate"/>
        <path d="M179.6,204.2a25.25,25.25,0,0,0-2.8,1c-1,.7-1.4,3.1-4.1,2.7-1.9-.3-1.1-1.8-1.1-1.8l4-1.3,4-1Z" style="opacity:0.09;isolation:isolate"/>
        <path d="M185.9,203.3l-.6-1.1s-4-3-7.1-2.1a11.6,11.6,0,0,0-4.8,2.5c-.7.6-1.3,2.8-1.7,3.7a.52.52,0,0,0,.3.7c1.3.6,3.1-.1,4.5-2.5l3.3-.4" style="fill:#f6e7e8"/>
        <path d="M34.3,181.1s12,6.8,18.4-2.3c0,0,.5,8-8.2,8C41.8,186.7,38.4,185.6,34.3,181.1Z" style="opacity:0.12;isolation:isolate"/>
        <path d="M32.6,173.2s-.8,10.7,10.8,10.7c0,0,13,2.3,9.9-20.2H32.7" style="stroke-width:2px;stroke:#ff7774;fill:none;stroke-linecap:round;stroke-linejoin:round"/>
        <path d="M99.2,176.8l4.9,28.7c19.2,2.4,22.3-.8,22.6-.5,2.4,2.2,0,5.2,0,5.2H104.9l-4,.4Z" style="opacity:0.12;isolation:isolate"/>
        <polygon points="25 186.3 23.2 209.5 25.9 209.5 25 186.3" style="opacity:0.12;isolation:isolate"/>
        <path d="M61.7,56.9s-4.6,1-6.8-1a3.27,3.27,0,0,0-3.8-.5c-2.5,1.1-3.7,3.7-5.1,8.7l-2.1,6.5s-.5-9.7,2-13.6,5.3-8.6,9.5-4.3C55.3,52.6,59,56.6,61.7,56.9Z" style="opacity:0.09;isolation:isolate"/>
        <polygon points="27.8 209.8 99.5 210.6 99.1 205.5 27.8 209.8" style="opacity:0.12;isolation:isolate"/>
        <path d="M76.7,71.5h-.4a2.57,2.57,0,0,0-2.7-2.4H64.8a2.5,2.5,0,0,0-2.7,2.3,8.1,8.1,0,0,0-2.2,0,2.63,2.63,0,0,0-2.7-2.3H48.4a2.57,2.57,0,0,0-2.7,2.4h-.4m-1.3,0h0l-.1,1h1.7v1a4.72,4.72,0,0,0,5,4.4h2.2c3.6,0,6.6-2.4,7-5.5a4.48,4.48,0,0,1,2.3,0,7,7,0,0,0,7,5.5h2.2c2.7,0,5-2,5-4.4v-1H78v-1h-.1M52.7,76.9H50.5a3.6,3.6,0,0,1-3.8-3.4v-2A1.59,1.59,0,0,1,48.4,70h8.8a1.66,1.66,0,0,1,1.7,1.5A6,6,0,0,1,52.7,76.9Zm22.5-3.5a3.6,3.6,0,0,1-3.8,3.4H69.2c-3.3,0-6-2.4-6-5.4a1.59,1.59,0,0,1,1.7-1.5h8.8a1.66,1.66,0,0,1,1.7,1.5l-.2,2Z" style="fill:#61171a"/>
        <path d="M100.2,209.2l-1.9-35.8c0-8.9,3.9-13.9,3.9-13.9" style="stroke-width:2px;stroke:#ff7774;fill:none;stroke-linecap:round;stroke-linejoin:round"/>
    </g>
</svg>
