<svg xmlns="http://www.w3.org/2000/svg" viewBox="0 0 209 212.4">
  <g id="icon">
    <circle cx="104.5" cy="104.5" r="104.5" style="fill:#ffdedc"/>
    <path d="M88,75.1s15.4-22.7,37.2,0c3.5,3.7,8.1,13,10.9,17.2,2.4,3.7,5.8,6.4,13.6,10C160,107,169,117,170.6,129.7c2.2,18.2-8.5,28.3-18.5,29.3,0,0-12.7.6-16,1-10.4,1.4-25.3,4-29-14.2s-5-47.5-5-47.5Z" style="fill:#7f4648"/>
    <path d="M127,92.4c-.3,0-.4.6,0,.6S127.4,92.4,127,92.4Z" style="fill:#393636"/>
    <ellipse cx="84.2" cy="106.4" rx="3.3" ry="8.5" style="stroke-miterlimit:10;stroke:#ff3a38;fill:none"/>
    <polygon points="189 132 189 149.6 193 131 189 131 189 132" style="fill:#ff3a38"/>
    <polygon points="171.3 155 179.1 155 179.1 131 171.3 155" style="fill:#ff3a38"/>
    <path d="M69.3,171.5s-34.4,14.1-46.4,17.1C17,190.1,5,188,8.7,168.9L17.1,123l9.1,1v40.5l10.5.1,31.5.4Z" style="fill:#ff3a38"/>
    <text transform="translate(98.9 55.8) rotate(-1)" style="font-size:9.34px;font-family:Graphik-Regular, Graphik;isolation:isolate;fill:#7f4648">KM</text>
    <rect x="30.5" y="53" width="153.5" height="107" style="stroke:#fff;stroke-width:10px;stroke-miterlimit:10;fill:none"/>
    <path d="M119.4,101.4s2.5,11.1,12.6,15.6c10.6,4.6,29.6,12.5,32,36l-4.1,3.3S129,129,115,128l-4-18,4-8.6Z" style="opacity:0.2;fill:#403e40;isolation:isolate"/>
    <path d="M112.7,127.5H90.8S76,126,52.8,146c-3.2,2.8-9.9,8.9-9.9,8.9H160s-5.9-11-11.2-16.5C142.4,131.9,132.4,126,112.7,127.5Z" style="fill:#ff3a38"/>
    <path d="M186,165s-6.7,17.2-10,26.6c-4,11.4-12.6,9.1-16.1,5-4.5-5.2-12.4-17.3-12.4-17.3l-8.4,33.1H74.9L64,165h98s1,3,2.3,3c.7,0,1.9-3,1.9-3Z" style="fill:#ff3a38"/>
    <rect x="30.5" y="53" width="153.5" height="107" style="stroke-width:10.5px;opacity:0.47;isolation:isolate;stroke-miterlimit:10;stroke:#ff3a38;fill:none"/>
    <path d="M92,196.3s23.4-2.7,31.7,0C123.7,196.3,115,186.6,92,196.3Z" style="opacity:0.16;fill:#403e40;isolation:isolate"/>
    <path d="M19.3,119.4c-.2-3.9-2.2-12,7.6-14.1,1.1-.2,3.5-.6,4.6-.2,2.6.9,6,4.6.2,11.1-2.6,2.9-4.6,3.9-6.6,7.9l-7-1C18,123,19.3,120.3,19.3,119.4Z" style="opacity:0.16;fill:#403e40;isolation:isolate"/>
    <path d="M18.3,119.4c-.2-3.9-2.2-12,7.6-14.1,1.1-.2,3.5-.6,4.6-.2,2.6.9,5.2,4,.2,11.1-1.6,2.2-4,3.9-4.6,7.9l-9-1C17,123,18.3,120.3,18.3,119.4Z" style="fill:#f6e7e8"/>
    <path d="M92.7,115.9l-.2,12.6S96,141.1,105,141.1c6,0,9-7,10-13l-1-16Z" style="fill:#f6e7e8"/>
    <path d="M92.6,116.3s17-2.1,21.5-4.3l1,7c-12,8-22.5-.4-22.5-.4Z" style="opacity:0.16;fill:#403e40;isolation:isolate"/>
    <path d="M89.8,73.3S85.3,76,84.4,86.9v1.4s-3.6,1.4-2.7,5.9c0,0-.1,6.7,3.1,7,0,0-.1,11.5,7.9,16,12.3,6.9,20.3-2.1,22.7-6.6.8-1.5.7-6.4.7-6.4l.9-1.8s3.7,1,4.7-7.3c0,0,.4-4.2-2.7-4.4l-2.7.9s.7-20.3-14.2-21.1C102.1,70.4,94.4,70.5,89.8,73.3Z" style="fill:#f6e7e8"/>
    <ellipse cx="119.4" cy="107.9" rx="3.3" ry="8.5" style="stroke-miterlimit:10;stroke:#ff3a38;fill:none"/>
    <path d="M117.3,98.4s2.4.6.9,3.8c0,0,3.8-2.2,2.9-7.5Z" style="fill:#f6e7e8"/>
    <path d="M105,103a7,7,0,0,1-8.3,10.2Z" style="fill:#ff3e41"/>
    <path d="M95,103a3,3,0,0,1,0-6" style="stroke:#ff7774;stroke-linecap:round;stroke-linejoin:round;stroke-width:2px;opacity:0.52;isolation:isolate;fill:none"/>
    <circle cx="89.7" cy="91.9" r="1.6" style="fill:#222"/>
    <circle cx="105" cy="91.9" r="1.6" style="fill:#222"/>
    <path d="M89,72.4S90.5,79,93.4,82c2.4,2.4,8.1,7.4,22.9,9.6l.7-1.5.2-15.7-9.1-7.2L95.6,70.4Z" style="fill:#7f4648"/>
    <path d="M99.2,66.2s-15.4,1-16.9,12.7c-.1,1.1,0,8.8,2.2,10.3,0,0,2.2-14.7,12.5-14.7Z" style="fill:#7f4648"/>
    <path d="M91.1,78.4a23.31,23.31,0,0,0-6.5,11s1.5-10.1,5.9-12.2Z" style="opacity:0.16;fill:#403e40;isolation:isolate"/>
    <path d="M115,128s-3,11-9,12c-2,.3-8,.9-13.5-11.6,0,0,3.5,12.6,12.5,12.6C105,141,113,142,115,128Z" style="opacity:0.16;fill:#403e40;isolation:isolate"/>
    <path d="M186,165l-66.8.2a7.22,7.22,0,0,0,.8-3.2,7,7,0,0,0-7-7H97a7,7,0,0,0-7,7,7.31,7.31,0,0,0,.8,3.3l-64.8.2.3,2.4H93.2a7,7,0,0,0,3.7,1.1h16a6.47,6.47,0,0,0,3.7-1.1h68.1Z" style="opacity:0.16;fill:#403e40;isolation:isolate"/>
    <path d="M113,167H97a7.09,7.09,0,0,1-7-7h0a7.09,7.09,0,0,1,7-7h16a7,7,0,0,1,7,7h0A7,7,0,0,1,113,167Z" style="fill:#f6e7e8"/>
    <rect x="96.6" y="155.9" width="35.5" height="13.1" style="fill:none"/>
    <text transform="translate(96.57 163.78)" style="font-size:11px;font-family:HelveticaNeue-Bold, Helvetica Neue;font-weight:700;isolation:isolate;fill:#7f4648">KM</text>
    <polygon points="179.1 155 176.4 155 179.1 140.3 179.1 155" style="opacity:0.16;fill:#403e40;isolation:isolate"/>
    <path d="M180.4,116.3s-2.4,6.7,5.6,11c0,0,3,2.7,3,3.7,0,0,1-2.7-5-7.3Z" style="opacity:0.16;fill:#403e40;isolation:isolate"/>
    <path d="M194,127.3c.8-3.9,4-11.5-5.4-15.1-1.1-.4-3.4-1.1-4.5-.9-2.7.5-6.1,4.6-1.8,10.9,1.5,2.3,6.7,4.7,6.7,8.7h4C193,131,193.8,128.2,194,127.3Z" style="fill:#f6e7e8"/>
    <path d="M90.5,77.1S92,91,116.3,91.5C116.3,91.5,95,89,90.5,77.1Z" style="opacity:0.16;fill:#403e40;isolation:isolate"/>
  </g>
</svg>
