<svg viewBox="0 0 24 24" xmlns="http://www.w3.org/2000/svg"><g id="icon"><path d="M.5 1.5h22v17H.5zm0 14h22m-5 7v1h-12v-1l4-1.5v-2.5h4V21z" fill="none" stroke="var(--svg_color)" stroke-linecap="round" stroke-linejoin="round" stroke-miterlimit="10"/><path fill="none" stroke="var(--svg_color)" stroke-linecap="round" stroke-linejoin="round" stroke-miterlimit="10" d="M18.001 8.501l-3.808-4H8.808l-3.807 4"/><path fill="none" stroke="var(--svg_color)" stroke-linecap="round" stroke-linejoin="round" stroke-miterlimit="10" d="M16.104 9.23l-2.74-2.729H9.637L6.898 9.23"/><path fill="none" stroke="var(--svg_color)" stroke-linecap="round" stroke-linejoin="round" stroke-miterlimit="10" d="M14.047 10.047l-1.546-1.546h-2l-1.547 1.546"/><path fill="var(--svg_color)" d="M12.066 10.766h.005-.005m-.566-.765a.195.195 0 00-.141.059l-.799.799a.2.2 0 000 .283l.799.799a.2.2 0 00.282 0l.799-.799a.2.2 0 000-.283l-.799-.799a.195.195 0 00-.141-.059z"/></g></svg>
