<svg viewBox="0 0 24 24" xmlns="http://www.w3.org/2000/svg"><g id="icon"><path fill="none" stroke="var(--svg_color)" stroke-linecap="round" stroke-linejoin="round" stroke-miterlimit="10" d="M2.5 6.5h-2v13h20v-13h-2m-18 10h20M17 5.5l-3.808-4H7.808L4 5.5"/><path fill="none" stroke="var(--svg_color)" stroke-linecap="round" stroke-linejoin="round" stroke-miterlimit="10" d="M15.103 6.23L12.364 3.5H8.636L5.897 6.23"/><path fill="none" stroke="var(--svg_color)" stroke-linecap="round" stroke-linejoin="round" stroke-miterlimit="10" d="M13.047 7.047L11.5 5.5h-2L7.953 7.047"/><path fill="var(--svg_color)" d="M11.065 7.766h.005-.005M10.499 7a.195.195 0 00-.141.059l-.799.799a.2.2 0 000 .283l.799.799a.2.2 0 00.283 0l.799-.799a.2.2 0 000-.283l-.799-.799A.197.197 0 0010.499 7z"/><path fill="none" stroke="var(--svg_color)" stroke-linecap="round" stroke-linejoin="round" stroke-miterlimit="10" d="M16.5 22.5v1h-12v-1l4-1.5v-1.5h4V21z"/></g></svg>
