<svg viewBox="0 0 24 24" xmlns="http://www.w3.org/2000/svg"><g id="icon"><g fill="none" stroke="var(--svg_color)" stroke-linecap="round" stroke-linejoin="round" stroke-miterlimit="10"><path d="M18.5 13.5v5H.5v-14h10m5 18v1h-12v-1l4-1.5v-2.5h4V21zm-15-7h18M15.5 5.382l2-1.132 2 1.132v2.236l-2 1.132-2-1.132z"/><path d="M21.5 5.513l1-1.096-.762-1.292-1.478.353-1.678-.899L18.25 1.5h-1.5l-.332 1.079-1.678.899-1.478-.353-.762 1.292 1 1.096v1.974l-1 1.096.762 1.292 1.478-.353 1.678.899.332 1.079h1.5l.332-1.079 1.678-.899 1.478.353.762-1.292-1-1.096z"/></g></g></svg>
