<svg viewBox="0 0 24 24" xmlns="http://www.w3.org/2000/svg"><g id="icon"><path d="M20.5 21.5v-11h-18v11m-2 0h22l-2 2H3zM5 5.5l3.808-4h5.384L18 5.5" fill="none" stroke="var(--svg_color)" stroke-linecap="round" stroke-linejoin="round" stroke-miterlimit="10"/><path fill="none" stroke="var(--svg_color)" stroke-linecap="round" stroke-linejoin="round" stroke-miterlimit="10" d="M16.103 6.23L13.364 3.5H9.636L6.897 6.23"/><path fill="none" stroke="var(--svg_color)" stroke-linecap="round" stroke-linejoin="round" stroke-miterlimit="10" d="M14.047 7.047L12.5 5.5h-2L8.953 7.047"/><path fill="var(--svg_color)" d="M12.066 7.766h.005-.005m-.566-.765a.2.2 0 00-.141.059l-.799.799a.2.2 0 000 .283l.799.799a.2.2 0 00.282 0l.799-.799a.2.2 0 000-.283l-.799-.799a.195.195 0 00-.141-.059z"/></g></svg>
