<svg viewBox="0 0 24 24" xmlns="http://www.w3.org/2000/svg"><g id="icon"><path d="M20.5 17.5v-13h-18v13m-2 0h8.969l2.031 1 2.062-1H22.5l-2 3H3z" fill="none" stroke="var(--svg_color)" stroke-linecap="round" stroke-linejoin="round" stroke-miterlimit="10"/><path fill="none" stroke="var(--svg_color)" stroke-linecap="round" stroke-linejoin="round" stroke-miterlimit="10" d="M18 11.5l-3.808-4H8.808L5 11.5"/><path fill="none" stroke="var(--svg_color)" stroke-linecap="round" stroke-linejoin="round" stroke-miterlimit="10" d="M16.103 12.23L13.364 9.5H9.636l-2.739 2.73"/><path fill="none" stroke="var(--svg_color)" stroke-linecap="round" stroke-linejoin="round" stroke-miterlimit="10" d="M14.047 13.047L12.5 11.5h-2l-1.547 1.547"/><path fill="var(--svg_color)" d="M12.066 13.766h.005-.005m-.566-.765a.195.195 0 00-.141.059l-.799.799a.2.2 0 000 .283l.799.799a.2.2 0 00.282 0l.799-.799a.2.2 0 000-.283l-.799-.799a.195.195 0 00-.141-.059z"/></g></svg>
