<?xml version="1.0" encoding="utf-8"?>
<!-- Generator: Adobe Illustrator 16.0.4, SVG Export Plug-In . SVG Version: 6.00 Build 0)  -->
<!DOCTYPE svg PUBLIC "-//W3C//DTD SVG 1.1//EN" "http://www.w3.org/Graphics/SVG/1.1/DTD/svg11.dtd">
<svg version="1.1" id="Layer_1" xmlns="http://www.w3.org/2000/svg" xmlns:xlink="http://www.w3.org/1999/xlink"
	 viewBox="1.359 17.826 37.221 4.543" enable-background="new 1.359 17.826 37.221 4.543"
	 xml:space="preserve">
<title>Artboard 2</title>
<path d="M19.394,17.909h-0.46c-0.035,0-0.069,0.014-0.097,0.035c-0.056,0.062-0.077,0.139-0.07,0.223v2.788c0,0.021,0,0.027,0,0.041
	l-1.729-2.934l-0.007-0.007l-0.028-0.035c-0.056-0.083-0.098-0.112-0.286-0.112H16.3c-0.042,0-0.174,0.021-0.174,0.258v3.979
	c-0.007,0.069,0.014,0.146,0.062,0.195c0.042,0.035,0.098,0.056,0.161,0.049h0.397c0.202,0,0.202-0.154,0.202-0.279v-2.787l0,0
	l1.735,2.898c0.069,0.126,0.132,0.182,0.271,0.182l0.425,0.007l0,0c0.049,0.007,0.098-0.007,0.139-0.042
	c0.056-0.056,0.063-0.146,0.063-0.244v-3.951C19.582,18.083,19.582,17.909,19.394,17.909z M21.073,17.909h-0.438
	c-0.147,0-0.23,0.035-0.23,0.202v4.049c0,0.125,0.028,0.237,0.209,0.237h0.46c0.175,0,0.194-0.098,0.194-0.21v-4.041
	C21.262,18.042,21.262,17.909,21.073,17.909L21.073,17.909z M15.582,22.111l-1.206-3.958c-0.049-0.14-0.098-0.237-0.286-0.237
	h-0.488c-0.181,0-0.237,0.09-0.286,0.237l-1.206,3.958c-0.035,0.119-0.049,0.188-0.007,0.237c0.028,0.034,0.07,0.049,0.119,0.049
	h0.425c0.146,0,0.181-0.077,0.216-0.202l0.237-0.781h1.373l0.244,0.781l0.007,0.035c0.028,0.104,0.056,0.167,0.202,0.167h0.467
	c0.07,0.014,0.14-0.015,0.188-0.063C15.624,22.271,15.603,22.182,15.582,22.111z M13.296,20.746l0.488-1.666l0.48,1.666H13.296z
	 M38.558,22.111l-1.206-3.958c-0.049-0.14-0.098-0.237-0.285-0.237h-0.488c-0.181,0-0.236,0.09-0.285,0.237l-1.206,3.958
	c-0.034,0.119-0.049,0.188-0.007,0.237c0.027,0.034,0.07,0.049,0.119,0.049h0.424c0.146,0,0.182-0.077,0.217-0.202l0.236-0.781
	h1.373l0.244,0.781L37.7,22.23c0.028,0.104,0.056,0.167,0.195,0.167h0.467c0.069,0.014,0.14-0.015,0.188-0.063
	C38.6,22.271,38.578,22.182,38.558,22.111z M36.271,20.746l0.488-1.666l0.488,1.666H36.271z M33.004,21.721H31.54
	c-0.049,0-0.062-0.006-0.062-0.006c-0.007-0.015-0.007-0.021-0.007-0.035v-3.505c0-0.167-0.035-0.265-0.23-0.265h-0.425
	c-0.175,0-0.202,0.112-0.202,0.223v3.987c0,0.139,0,0.278,0.195,0.278h2.167c0.098,0,0.209,0,0.209-0.182v-0.32
	c0.007-0.049-0.007-0.098-0.034-0.132C33.107,21.729,33.059,21.715,33.004,21.721L33.004,21.721z M34.328,17.917h-0.439
	c-0.146,0-0.23,0.035-0.23,0.202v4.048c0,0.126,0.028,0.237,0.209,0.237h0.461c0.174,0,0.194-0.098,0.194-0.209v-4.042
	C34.509,18.042,34.509,17.909,34.328,17.917L34.328,17.917z M25.812,17.917h-0.481c-0.104,0.007-0.202,0.062-0.244,0.16
	l-1.031,1.735l-1.06-1.756c-0.049-0.098-0.146-0.153-0.258-0.146h-0.453c-0.194,0-0.215,0.14-0.215,0.258v3.958
	c0,0.266,0.166,0.266,0.258,0.266h0.383c0.209,0,0.209-0.146,0.209-0.224v-2.934l0.809,1.442l0.014,0.027
	c0.062,0.119,0.09,0.175,0.209,0.175h0.133c0.098,0,0.132-0.056,0.216-0.194l0.836-1.464v2.913c0,0.195,0.069,0.265,0.258,0.265
	h0.397c0.182,0,0.209-0.112,0.209-0.23v-4c0-0.09,0-0.16-0.049-0.209C25.916,17.923,25.867,17.909,25.812,17.917L25.812,17.917z
	 M30.056,22.111l-1.206-3.958c-0.049-0.14-0.098-0.237-0.285-0.237h-0.488c-0.181,0-0.236,0.09-0.285,0.237l-1.205,3.958
	c-0.035,0.119-0.049,0.188-0.008,0.237c0.028,0.034,0.07,0.049,0.119,0.049h0.425c0.146,0,0.181-0.077,0.216-0.202l0.236-0.781
	h1.373l0.244,0.781l0.008,0.035c0.027,0.104,0.055,0.167,0.201,0.167h0.467c0.07,0.014,0.14-0.015,0.188-0.063
	C30.098,22.271,30.076,22.182,30.056,22.111z M27.77,20.746l0.488-1.666l0.488,1.666H27.77z"/>
<path fill="#A84D10" d="M8.718,18.871c0-0.579,0.467-1.045,1.045-1.045c0.578,0,1.045,0.467,1.045,1.045
	c0,0.578-0.467,1.045-1.045,1.045C9.185,19.917,8.718,19.449,8.718,18.871z M4.279,22.236c0.021-0.578,0.509-1.023,1.087-1.003
	c0.579,0.021,1.024,0.509,1.003,1.087c0,0.014,0,0.035,0,0.049h2.934c0.07-2.195-1.652-4.028-3.84-4.097
	c-2.188-0.07-4.035,1.645-4.104,3.839c0,0.084,0,0.174,0,0.258h2.934C4.286,22.32,4.279,22.279,4.279,22.236z"/>
</svg>
