<svg xmlns="http://www.w3.org/2000/svg" width="206" height="133" viewBox="0 0 206 133" xmlns:xlink="http://www.w3.org/1999/xlink">
  <defs>
    <polygon id="a" points="0 132.937 205.459 132.937 205.459 0 0 0"/>
  </defs>
  <g fill="none" fill-rule="evenodd">
    <path fill="#FFFFFF" d="M195.9507,0.5005 C200.9187,0.5005 204.9597,4.5425 204.9597,9.5105 L204.9597,123.4275 C204.9597,128.3955 200.9187,132.4375 195.9507,132.4375 L9.5097,132.4375 C4.5417,132.4375 0.4997,128.3955 0.4997,123.4275 L0.4997,9.5105 C0.4997,4.5425 4.5417,0.5005 9.5097,0.5005 L195.9507,0.5005 Z"/>
    <path fill="#E31F2B" d="M197.9136,119.3501 C197.9136,122.6731 195.1936,125.3931 191.8706,125.3931 L13.5906,125.3931 C10.2666,125.3931 7.5466,122.6731 7.5466,119.3501 L7.5466,13.5871 C7.5466,10.2641 10.2666,7.5441 13.5906,7.5441 L191.8706,7.5441 C195.1936,7.5441 197.9136,10.2641 197.9136,13.5871 L197.9136,119.3501 Z"/>
    <path fill="#FFFFFF" d="M23.8999 99.2886L23.8999 107.9316 28.2529 107.9316C30.0909 107.9316 31.4489 107.5596 32.3249 106.8196 33.2009 106.0786 33.6399 104.9446 33.6399 103.4176 33.6399 100.6646 31.7729 99.2886 28.0369 99.2886L23.8999 99.2886zM23.8999 93.7096L27.7789 93.7096C29.5889 93.7096 30.8999 93.4146 31.7109 92.8246 32.5229 92.2346 32.9289 91.2596 32.9289 89.8986 32.9289 88.6286 32.4869 87.7176 31.6039 87.1656 30.7199 86.6136 29.3229 86.3376 27.4129 86.3376L23.8999 86.3376 23.8999 93.7096zM17.2199 80.5756L27.0249 80.5756C31.4919 80.5756 34.7349 81.2446 36.7539 82.5846 38.7719 83.9216 39.7809 86.0506 39.7809 88.9686 39.7809 90.9496 39.3389 92.5746 38.4559 93.8456 37.5719 95.1156 36.3979 95.8786 34.9329 96.1366L34.9329 96.3626C36.9289 96.8316 38.3689 97.7096 39.2529 98.9936 40.1369 100.2786 40.5789 101.9876 40.5789 104.1206 40.5789 107.1446 39.5399 109.5036 37.4639 111.1966 35.3889 112.8906 32.5699 113.7376 29.0069 113.7376L17.2199 113.7376 17.2199 80.5756zM73.0527 113.7378L64.5627 113.7378 50.8587 88.6508 50.6637 88.6508C50.9367 93.0818 51.0737 96.2418 51.0737 98.1328L51.0737 113.7378 45.1047 113.7378 45.1047 80.5758 53.5307 80.5758 67.2137 105.4138 67.3647 105.4138C67.1487 101.1038 67.0407 98.0558 67.0407 96.2718L67.0407 80.5758 73.0527 80.5758 73.0527 113.7378zM94.4922 99.2886L94.4922 107.9316 98.8452 107.9316C100.6832 107.9316 102.0412 107.5596 102.9172 106.8196 103.7932 106.0786 104.2322 104.9446 104.2322 103.4176 104.2322 100.6646 102.3642 99.2886 98.6292 99.2886L94.4922 99.2886zM94.4922 93.7096L98.3702 93.7096C100.1802 93.7096 101.4912 93.4146 102.3042 92.8246 103.1142 92.2346 103.5202 91.2596 103.5202 89.8986 103.5202 88.6286 103.0782 87.7176 102.1952 87.1656 101.3112 86.6136 99.9152 86.3376 98.0042 86.3376L94.4922 86.3376 94.4922 93.7096zM87.8112 80.5756L97.6162 80.5756C102.0832 80.5756 105.3272 81.2446 107.3452 82.5846 109.3642 83.9216 110.3722 86.0506 110.3722 88.9686 110.3722 90.9496 109.9312 92.5746 109.0482 93.8456 108.1642 95.1156 106.9902 95.8786 105.5252 96.1366L105.5252 96.3626C107.5212 96.8316 108.9612 97.7096 109.8452 98.9936 110.7282 100.2786 111.1702 101.9876 111.1702 104.1206 111.1702 107.1446 110.1322 109.5036 108.0562 111.1966 105.9802 112.8906 103.1612 113.7376 99.5982 113.7376L87.8112 113.7376 87.8112 80.5756zM120.4165 101.0132C120.4165 103.5232 120.8075 105.4212 121.5905 106.7052 122.3735 107.9912 123.6485 108.6342 125.4155 108.6342 127.1685 108.6342 128.4285 107.9942 129.1965 106.7182 129.9665 105.4402 130.3495 103.5382 130.3495 101.0132 130.3495 98.5032 129.9625 96.6202 129.1865 95.3652 128.4105 94.1102 127.1395 93.4822 125.3725 93.4822 123.6195 93.4822 122.3555 94.1072 121.5795 95.3532 120.8045 96.6022 120.4165 98.4872 120.4165 101.0132M137.0735 101.0132C137.0735 105.1412 136.0385 108.3692 133.9705 110.6982 131.9015 113.0272 129.0205 114.1912 125.3285 114.1912 123.0165 114.1912 120.9775 113.6592 119.2095 112.5912 117.4425 111.5272 116.0855 109.9942 115.1375 107.9982 114.1885 106.0022 113.7145 103.6742 113.7145 101.0132 113.7145 96.8692 114.7415 93.6492 116.7965 91.3502 118.8515 89.0512 121.7375 87.9032 125.4585 87.9032 127.7715 87.9032 129.8115 88.4322 131.5785 89.4912 133.3455 90.5482 134.7025 92.0682 135.6505 94.0492 136.5995 96.0312 137.0735 98.3512 137.0735 101.0132"/>
    <mask id="b" fill="white">
      <use xlink:href="#a"/>
    </mask>
    <polygon fill="#FFFFFF" points="140.738 113.738 147.31 113.738 147.31 78.444 140.738 78.444" mask="url(#b)"/>
    <path fill="#FFFFFF" d="M152.44 113.738L159.012 113.738 159.012 88.379 152.44 88.379 152.44 113.738zM152.16 81.824C152.16 79.57 153.352 78.444 155.737 78.444 158.122 78.444 159.314 79.57 159.314 81.824 159.314 82.898 159.016 83.733 158.419 84.33 157.824 84.927 156.929 85.226 155.737 85.226 153.352 85.226 152.16 84.092 152.16 81.824L152.16 81.824zM170.9175 95.7202C170.9175 96.9302 171.2325 97.8882 171.8645 98.5942 172.4945 99.2992 173.4565 99.6522 174.7505 99.6522 176.0585 99.6522 177.0175 99.2992 177.6255 98.5942 178.2325 97.8882 178.5385 96.9302 178.5385 95.7202 178.5385 93.0322 177.2745 91.6892 174.7505 91.6892 172.1935 91.6892 170.9175 93.0322 170.9175 95.7202L170.9175 95.7202zM168.3845 113.8792C168.3845 114.7172 168.8445 115.3762 169.7645 115.8552 170.6855 116.3342 171.9745 116.5742 173.6325 116.5742 176.1275 116.5742 178.0815 116.2742 179.4955 115.6752 180.9105 115.0762 181.6175 114.2582 181.6175 113.2212 181.6175 112.3832 181.1995 111.8042 180.3635 111.4852 179.5255 111.1652 178.2325 111.0062 176.4835 111.0062L172.8795 111.0062C171.6015 111.0062 170.5325 111.2692 169.6735 111.7932 168.8135 112.3202 168.3845 113.0142 168.3845 113.8792L168.3845 113.8792zM188.0755 88.4162L188.0755 91.5092 184.0825 92.4072C184.8135 93.4062 185.1785 94.5232 185.1785 95.7602 185.1785 98.1552 184.2235 100.0202 182.3135 101.3582 180.4055 102.6942 177.7545 103.3632 174.3615 103.3632L173.1065 103.3032 172.0805 103.2032C171.3645 103.6822 171.0085 104.2142 171.0085 104.8002 171.0085 105.6782 172.2865 106.1162 174.8415 106.1162L179.1775 106.1162C181.9765 106.1162 184.1095 106.6432 185.5765 107.6942 187.0455 108.7432 187.7785 110.2872 187.7785 112.3232 187.7785 114.9302 186.5355 116.9522 184.0495 118.3892 181.5615 119.8262 177.9895 120.5442 173.3355 120.5442 169.7755 120.5442 167.0565 120.0022 165.1795 118.9182 163.2995 117.8342 162.3595 116.3142 162.3595 114.3592 162.3595 113.0142 162.8395 111.8912 163.7985 110.9862 164.7565 110.0812 166.1635 109.4362 168.0195 109.0502 167.3045 108.7832 166.6805 108.3482 166.1475 107.7432 165.6155 107.1382 165.3495 106.4952 165.3495 105.8182 165.3495 104.9662 165.6315 104.2572 166.1935 103.6922 166.7565 103.1272 167.5695 102.5722 168.6355 102.0262 167.2965 101.5202 166.2355 100.7092 165.4525 99.5912 164.6685 98.4742 164.2765 97.1572 164.2765 95.6402 164.2765 93.2052 165.1825 91.3232 166.9925 89.9922 168.8025 88.6622 171.3885 87.9972 174.7505 87.9972 175.4655 87.9972 176.3135 88.0542 177.2945 88.1662 178.2745 88.2812 178.9025 88.3642 179.1775 88.4162L188.0755 88.4162z" mask="url(#b)"/>
    <path fill="#E31F2B" d="M203.9595,123.4272 C203.9595,127.8322 200.3555,131.4372 195.9505,131.4372 L9.5095,131.4372 C5.1045,131.4372 1.5005,127.8322 1.5005,123.4272 L1.5005,9.5102 C1.5005,5.1052 5.1045,1.5002 9.5095,1.5002 L195.9505,1.5002 C200.3555,1.5002 203.9595,5.1052 203.9595,9.5102 L203.9595,123.4272 Z M195.9505,0.5002 L9.5095,0.5002 C4.5415,0.5002 0.5005,4.5422 0.5005,9.5102 L0.5005,123.4272 C0.5005,128.3952 4.5415,132.4372 9.5095,132.4372 L195.9505,132.4372 C200.9185,132.4372 204.9595,128.3952 204.9595,123.4272 L204.9595,9.5102 C204.9595,4.5422 200.9185,0.5002 195.9505,0.5002 L195.9505,0.5002 Z" mask="url(#b)"/>
    <path fill="#E31F2B" d="M9.5098,2.0005 C5.3688,2.0005 1.9998,5.3695 1.9998,9.5105 L1.9998,123.4275 C1.9998,127.5675 5.3688,130.9375 9.5098,130.9375 L195.9508,130.9375 C200.0918,130.9375 203.4598,127.5675 203.4598,123.4275 L203.4598,9.5105 C203.4598,5.3695 200.0918,2.0005 195.9508,2.0005 L9.5098,2.0005 Z M0.9998,123.4275 C0.9998,128.1195 4.8178,131.9375 9.5098,131.9375 L195.9508,131.9375 C200.6418,131.9375 204.4598,128.1195 204.4598,123.4275 L204.4598,9.5105 L204.4598,123.4275 C204.4598,128.1195 200.6418,131.9375 195.9508,131.9375 L9.5098,131.9375 C4.8178,131.9375 0.9998,128.1195 0.9998,123.4275 L0.9998,123.4275 Z M195.9508,132.9375 L9.5098,132.9375 C4.2658,132.9375 -0.0002,128.6715 -0.0002,123.4275 L-0.0002,9.5105 C-0.0002,4.2665 4.2658,0.0005 9.5098,0.0005 L195.9508,0.0005 C201.1938,0.0005 205.4598,4.2665 205.4598,9.5105 L205.4598,123.4275 C205.4598,128.6715 201.1938,132.9375 195.9508,132.9375 L195.9508,132.9375 Z" mask="url(#b)"/>
  </g>
</svg>
