<?xml version="1.0" encoding="utf-8"?>
<!-- Generator: Adobe Illustrator 22.0.1, SVG Export Plug-In . SVG Version: 6.00 Build 0)  -->
<svg version="1.1" id="Layer_1" xmlns="http://www.w3.org/2000/svg" xmlns:xlink="http://www.w3.org/1999/xlink" x="0px" y="0px"
	 viewBox="0 0 95.9 26.7" style="enable-background:new 0 0 95.9 26.7;" xml:space="preserve">
<style type="text/css">
	.st0{fill:none;stroke:url(#SVGID_1_);stroke-width:3.279;stroke-linecap:round;stroke-miterlimit:10;}
	.st1{fill:#424242;}
</style>
<g>
	<g>
		
			<linearGradient id="SVGID_1_" gradientUnits="userSpaceOnUse" x1="-0.9395" y1="753.3384" x2="36.3395" y2="753.3384" gradientTransform="matrix(1 0 0 1 0 -740)">
			<stop  offset="1.604567e-02" style="stop-color:#A7FFEB;stop-opacity:0"/>
			<stop  offset="0.3352" style="stop-color:#A7FFEB;stop-opacity:0.8652"/>
			<stop  offset="0.3849" style="stop-color:#A7FFEB"/>
			<stop  offset="0.7762" style="stop-color:#1DE9B6"/>
			<stop  offset="1" style="stop-color:#00BFA5"/>
		</linearGradient>
		<path class="st0" d="M0.7,19.5h10.2c0.6,0,1.1-0.3,1.3-0.8l2.5-5.1c0.5-1.1,2.1-1.1,2.6,0.1l4.2,9.6c0.5,1.1,2.1,1.2,2.6,0.1
			L34.7,2.5"/>
	</g>
</g>
<g>
	<path class="st1" d="M50.1,9.1c-0.9-1.6-2.4-2.4-4.2-2.4h-4.6c-0.1,0-0.2,0.1-0.2,0.2v13.9c0,0.1,0.1,0.2,0.2,0.2h4.5
		c1,0,1.9-0.2,2.6-0.7c0.7-0.4,1.3-1,1.7-1.7c0.2-0.3,0.3-0.5,0.4-0.7c0.1-0.2,0.2-0.5,0.2-0.8c0.1-0.6,0.2-1.7,0.2-3.2
		c0-1.5,0-2.5-0.1-3.1C50.6,10.2,50.4,9.6,50.1,9.1z M48.6,16.6c-0.1,0.5-0.2,0.9-0.4,1.2c-0.5,0.8-1.4,1.3-2.6,1.3h-2.5V8.7h2.5
		c1.1,0,1.9,0.4,2.5,1.2c0.3,0.3,0.5,0.8,0.5,1.3c0.1,0.5,0.1,1.4,0.1,2.7C48.7,15.2,48.7,16.1,48.6,16.6z"/>
	<path class="st1" d="M54.1,21h1.5c0.1,0,0.2-0.1,0.2-0.2v-8.9c0-0.1-0.1-0.2-0.2-0.2h-1.5c-0.1,0-0.2,0.1-0.2,0.2v8.9
		C53.9,20.9,54,21,54.1,21z"/>
	<path class="st1" d="M67.1,7.3c-0.5,0.5-0.8,1.2-0.8,2.1v2.2h-2.2h-1.6h-0.9V9.5c0-0.6,0.3-0.9,0.9-0.9h1.2c0.1,0,0.2-0.1,0.2-0.2
		V6.9c0-0.1-0.1-0.2-0.2-0.2h-1.3c-0.8,0-1.4,0.2-1.9,0.6c-0.5,0.5-0.8,1.2-0.8,2.1v2.2h-1.3c-0.1,0-0.2,0.1-0.2,0.2v1.1
		c0,0.1,0.1,0.2,0.2,0.2h1.3v7.5c0,0.1,0.1,0.2,0.2,0.2h1.5c0.1,0,0.2-0.1,0.2-0.2v-7.5h0.9h1.6h2.2v7.5c0,0.1,0.1,0.2,0.2,0.2H68
		c0.1,0,0.2-0.1,0.2-0.2v-7.5h2.3c0.1,0,0.2-0.1,0.2-0.2v-1.1c0-0.1-0.1-0.2-0.2-0.2h-2.3V9.5c0-0.6,0.3-0.9,0.9-0.9h1.4
		c0.1,0,0.2-0.1,0.2-0.2V6.9c0-0.1-0.1-0.2-0.2-0.2H69C68.2,6.7,67.6,6.9,67.1,7.3z"/>
	<path class="st1" d="M73.1,21h1.5c0.1,0,0.2-0.1,0.2-0.2v-8.9c0-0.1-0.1-0.2-0.2-0.2h-1.5c-0.1,0-0.2,0.1-0.2,0.2v8.9
		C72.8,20.9,72.9,21,73.1,21z"/>
	<path class="st1" d="M83.7,11.4c-0.7-0.5-1.7-0.7-3-0.7c-1.4,0-2.5,0.4-3.2,1.3c-0.1,0.1-0.1,0.2,0,0.3l1.2,0.9
		c0.1,0.1,0.2,0.1,0.3,0c0.2-0.2,0.3-0.4,0.6-0.4c0.3-0.1,0.7-0.2,1.2-0.2c1.4,0,2,0.4,2,1.3V15h-2.8c-1.1,0-1.9,0.3-2.4,0.9
		c-0.5,0.6-0.8,1.3-0.8,2.1c0,0.9,0.3,1.6,0.9,2.2c0.6,0.6,1.4,0.9,2.6,0.9c0.7,0,1.2-0.1,1.6-0.3c0.4-0.2,0.7-0.4,0.9-0.8h0v0.7
		c0,0.1,0.1,0.2,0.2,0.2h1.5c0.1,0,0.2-0.1,0.2-0.2v-6.8C84.8,12.8,84.4,11.9,83.7,11.4z M82.8,17.5c0,0.8-0.2,1.3-0.5,1.5
		c-0.3,0.2-0.9,0.3-1.8,0.3c-0.7,0-1.1-0.1-1.4-0.4c-0.3-0.2-0.4-0.5-0.4-0.9c0-0.8,0.6-1.2,1.7-1.2h2.2c0.1,0,0.2,0.1,0.2,0.2V17.5
		z"/>
	<circle class="st1" cx="54.9" cy="7.7" r="1.1"/>
	<circle class="st1" cx="73.8" cy="7.7" r="1.1"/>
</g>
</svg>
