<?xml version="1.0" encoding="utf-8"?>
<!-- Generator: Adobe Illustrator 19.2.1, SVG Export Plug-In . SVG Version: 6.00 Build 0)  -->
<svg version="1.1" xmlns="http://www.w3.org/2000/svg" xmlns:xlink="http://www.w3.org/1999/xlink"
	 viewBox="0 0 652 652" style="enable-background:new 0 0 652 652;" xml:space="preserve">
<style type="text/css">
	.st0{fill:#002E66;}
	.st1{fill:#D10034;}
	.st2{fill:#FFFFFF;}
</style>
<g>
	<polygon class="st0" points="94,284 82.6,349 61.4,284 41.5,284 26.5,369.4 42,369.4 53.2,306 74.4,369.4 94.4,369.4 109.4,284 	
		"/>
	<g>
		<path class="st0" d="M113.1,349.5c0-1.8,0.1-3.7,0.5-5.6l6.3-35.5c3-16.8,12.4-25.7,35.9-25.7c19.5,0,28.6,10,28.6,22.6
			c0,1.5-0.1,2.9-0.4,4.5l-6.2,34.9c-3.1,17.3-12.1,26-36.8,26C121.6,370.7,113.1,362,113.1,349.5 M168.1,309.7
			c0.1-1,0.3-2.1,0.3-2.9c0-6.4-3.7-10.1-14.2-10.1c-11.4,0-17.1,4.4-18.6,13.1l-5.9,33.5c-0.2,1.5-0.4,3-0.4,4.2
			c0,6,3.5,9.2,14.4,9.2c11.7,0,17.1-4.7,18.6-13.3L168.1,309.7z"/>
		<path class="st0" d="M225.1,341h-16l-4.9,28.3h-15.9l15-85.4h32.2c17.4,0,25.5,6.8,25.5,18.3c0,1.7-0.1,3.1-0.5,5.3l-2.1,11.5
			c-1.9,10.9-5.6,16.5-16.5,19.9l16.3,30.4h-17.7L225.1,341z M244.3,309c0.3-1.4,0.4-2.7,0.4-3.6c0-5.5-3.3-7.4-10.5-7.4h-17.6
			l-5,29.4h17.8c9.7,0,12.2-3.2,13.5-10.4L244.3,309z"/>
		<polygon class="st0" points="284.2,284 300.1,284 287.6,355.4 322.8,355.4 320.4,369.4 269.2,369.4 		"/>
		<polygon class="st0" points="348.2,284 400.7,284 398.1,297.9 361.7,297.9 358.1,318.3 391.8,318.3 389.4,332.3 355.7,332.3 
			351.6,355.4 388,355.4 385.7,369.4 333.2,369.4 		"/>
		<path class="st0" d="M399.2,369.4l15.1-85.4h31.3c18,0,24.8,9.5,24.8,20.4c0,1.8-0.1,3.3-0.5,5.4l-6.5,37.1
			c-2.3,13.1-8.3,22.6-30.8,22.6H399.2z M453.8,310.4c0.3-1.4,0.4-2.8,0.4-3.8c0-5.5-3-8.6-12.2-8.6h-14.4l-10.1,57.5h15.1
			c11.2,0,14-4.2,15.5-12.9L453.8,310.4z"/>
		<polygon class="st1" points="537.8,318.1 548.4,326.7 534.8,335.2 617.3,335.2 620.3,318.1 		"/>
	</g>
	<g>
		<line class="st1" x1="495.5" y1="283.9" x2="495.5" y2="283.9"/>
		<polygon class="st1" points="495.5,283.9 516.7,301 623.4,301 626.5,283.9 		"/>
	</g>
	<g>
		<polygon class="st1" points="507.4,352.3 480.1,369.4 611.1,369.4 614.1,352.3 		"/>
	</g>
	<g>
		<polygon class="st2" points="507.4,352.3 614.1,352.3 611.1,369.4 617.2,335.2 534.8,335.2 		"/>
		<polygon class="st2" points="626.5,283.9 623.4,301 516.7,301 537.8,318.1 620.3,318.1 		"/>
	</g>
	<g>
		<polygon class="st0" points="495.5,283.9 548.4,326.7 480.1,369.4 		"/>
		<path class="st2" d="M513.7,314.3c0.3-0.4,0.6-0.3,0.6,0.2l-0.2,7.9c0,0.5,0.4,1.1,0.9,1.3l7.4,2.9c0.5,0.2,0.5,0.5,0,0.6
			l-7.6,2.3c-0.5,0.1-1,0.7-1,1.2l-0.5,7.9c0,0.5-0.3,0.6-0.6,0.2l-4.5-6.5c-0.3-0.4-1-0.7-1.5-0.6l-7.7,1.9
			c-0.5,0.1-0.7-0.1-0.4-0.5l4.8-6.3c0.3-0.4,0.4-1.1,0.1-1.6l-4.2-6.7c-0.3-0.4-0.1-0.7,0.4-0.5l7.5,2.6c0.5,0.2,1.2,0,1.5-0.4
			L513.7,314.3z"/>
	</g>
</g>
</svg>
