<?xml version="1.0" encoding="utf-8"?>
<!-- Generator: Adobe Illustrator 22.0.1, SVG Export Plug-In . SVG Version: 6.00 Build 0)  -->
<svg version="1.1" id="Layer_1" xmlns="http://www.w3.org/2000/svg" xmlns:xlink="http://www.w3.org/1999/xlink" x="0px" y="0px"
	 viewBox="0 0 135.1 74.1" style="enable-background:new 0 0 135.1 74.1;" xml:space="preserve">
<style type="text/css">
	.st0{fill:#3B3B3B;}
</style>
<g>
	<path class="st0" d="M32.7,17.4c0-3.6-0.2-6.6-2.2-9.4c-2.3-3-5.4-4.5-9.6-4.5c-2.9,0-5.4,0.9-7.5,2.8L13,6.6V4H5v3.5h4.2v21.2H5.3
		V32h11.4v-3.3H13V17.6c0-3.1,0-5.3,1.3-7.3C15.8,8.1,18,7,21,7c2.9,0,5.2,1.2,6.6,3.3c1.2,1.9,1.3,4.1,1.3,7.3v11.1h-3.7V32h11.4
		v-3.3h-3.9V17.4z"/>
	<path class="st0" d="M32.7,58.5c0-3.6-0.2-6.6-2.2-9.4c-2.3-3-5.4-4.5-9.6-4.5c-2.9,0-5.4,0.9-7.5,2.8L13,47.8v-2.6H5v3.5h4.2v21.2
		H5.3v3.3h11.4v-3.3H13V58.8c0-3.1,0-5.3,1.3-7.3c1.5-2.2,3.7-3.3,6.7-3.3c2.9,0,5.2,1.2,6.6,3.3c1.2,1.9,1.3,4.1,1.3,7.3v11.1h-3.7
		v3.3h11.4v-3.3h-3.9V58.5z"/>
	<path class="st0" d="M53.6,32.6c3.9,0,7.4-1.5,10.1-4.3c2.7-2.7,4.2-6.4,4.2-10.4c0-3.9-1.5-7.6-4.2-10.4C61,4.8,57.5,3.3,53.6,3.3
		c-3.9,0-7.5,1.5-10.2,4.2c-2.7,2.7-4.1,6.4-4.1,10.4s1.5,7.7,4.1,10.4C46.1,31.1,49.8,32.6,53.6,32.6z M53.6,6.8
		c2.8,0,5.4,1.1,7.4,3.2c2,2.1,3.1,4.9,3.1,7.9c0,3-1.1,5.8-3.1,7.9c-2,2.1-4.6,3.3-7.4,3.3c-2.8,0-5.3-1.1-7.4-3.2
		c-2-2.2-3.1-4.9-3.1-7.9c0-3,1.1-5.7,3.1-7.9C48.2,8,50.8,6.8,53.6,6.8z"/>
	<polygon class="st0" points="88.1,7.5 91.7,7.5 84.3,26.4 76.9,7.5 80.5,7.5 80.5,4.2 70,4.2 70,7.5 73,7.5 82.7,31.9 82.7,32 
		86,32 95.7,7.5 98.6,7.5 98.6,4.2 88.1,4.2 	"/>
	<path class="st0" d="M132.6,7.5V4.2h-7.8v3.9l-0.4-0.4c-2.6-2.8-6-4.2-9.8-4.2c-3.8,0-7.3,1.5-10,4.3c-2.7,2.8-4,6.2-4,10.3
		c0,4,1.4,7.5,4,10.3c2.6,2.7,6.2,4.3,10,4.3c4,0,7.3-1.4,9.8-4.3l0.4-0.4v4.1h7.8v-3.4h-4.1v-21H132.6z M114.6,29
		c-5.7,0-10.2-4.8-10.2-11c0-6.2,4.5-11,10.2-11c2.8,0,5.3,1.1,7.2,3.2c1.9,2.1,3,4.8,3,7.8c0,3-1.1,5.7-3,7.8
		C119.8,27.9,117.3,29,114.6,29z"/>
	<polygon class="st0" points="79.9,40 76.2,40 76.2,45.4 70.5,45.4 70.5,48.8 76.2,48.8 76.2,73.2 84.9,73.2 84.9,69.9 79.9,69.9 
		79.9,48.8 85.9,48.8 85.9,45.4 79.9,45.4 	"/>
	<path class="st0" d="M68,59c-0.3-8.4-6.3-14.5-14.3-14.5c-3.9,0-7.5,1.5-10.2,4.2c-2.6,2.7-4.1,6.5-4.1,10.4
		c0,3.9,1.5,7.7,4.1,10.4c2.7,2.8,6.3,4.3,10.2,4.3c6,0,10.8-3.3,12.9-8.7l0.1-0.3h-4l0,0c-1.8,3.4-5.2,5.5-9,5.5
		c-5.4,0-9.6-4-10.4-9.9l0-0.3H68L68,59z M53.7,48c4.8,0,8.9,3.3,10.1,8.2l0.1,0.3H43.5l0.1-0.3C45,51.1,48.7,48,53.7,48z"/>
</g>
</svg>
