<?xml version="1.0" encoding="UTF-8" standalone="no"?>
<!-- Created with Inkscape (http://www.inkscape.org/) -->
<svg
   xmlns:dc="http://purl.org/dc/elements/1.1/"
   xmlns:cc="http://creativecommons.org/ns#"
   xmlns:rdf="http://www.w3.org/1999/02/22-rdf-syntax-ns#"
   xmlns:svg="http://www.w3.org/2000/svg"
   xmlns="http://www.w3.org/2000/svg"
   version="1.1"
   id="svg3291">
  <defs
     id="defs3293">
    <clipPath
       id="clipPath3063">
      <path
         d="m 495.692,36.734 63.583,0 0,41.62 -63.583,0 0,-41.62 z"
         id="path3065" />
    </clipPath>
    <clipPath
       id="clipPath3127">
      <path
         d="m 495.692,36.734 63.583,0 0,41.62 -63.583,0 0,-41.62 z"
         id="path3129" />
    </clipPath>
    <clipPath
       id="clipPath3159">
      <path
         d="m 495.692,36.734 63.583,0 0,41.62 -63.583,0 0,-41.62 z"
         id="path3161" />
    </clipPath>
    <clipPath
       id="clipPath3191">
      <path
         d="m 495.692,36.734 63.583,0 0,41.62 -63.583,0 0,-41.62 z"
         id="path3193" />
    </clipPath>
  </defs>
  <metadata
     id="metadata3296">
    <rdf:RDF>
      <cc:Work
         rdf:about="">
        <dc:format>image/svg+xml</dc:format>
        <dc:type
           rdf:resource="http://purl.org/dc/dcmitype/StillImage" />
        <dc:title></dc:title>
      </cc:Work>
    </rdf:RDF>
  </metadata>
  <g
     transform="translate(0,-123)"
     id="layer1">
    <g
       transform="matrix(16.917215,0,0,-16.917215,-8400.0934,1431.0826)"
       id="g3236">
      <g
         id="g3059">
        <g
           clip-path="url(#clipPath3063)"
           id="g3061">
          <g
             transform="translate(550.7859,55.2798)"
             id="g3067">
            <path
               d="m 0,0 -13.74,0.034 -0.076,0 c -0.096,0.012 -0.171,0.072 -0.21,0.154 l -0.005,0.008 c -0.799,1.578 -2.447,3.294 -3.708,4.191 -0.092,0.073 -0.137,0.14 -0.137,0.228 0,0.14 0.099,0.251 0.218,0.251 0,0 23.133,-0.037 23.228,-0.037 0.095,0 0.182,-0.064 0.218,-0.172 C 5.798,4.63 5.804,4.601 5.804,4.571 5.803,4.485 5.759,4.391 5.668,4.309 L 1.244,0.469 C 0.951,0.213 0.39,0 0,0"
               id="path3069"
               style="fill:#ed1736;fill-opacity:1;fill-rule:nonzero;stroke:none" />
          </g>
        </g>
      </g>
      <path
         d="m 0,0 c -1.38,0 -2.742,0.345 -3.37,0.683 -0.039,0.023 -0.052,0.072 -0.052,0.128 l 0,2.593 c 0.005,0.031 0.026,0.056 0.057,0.069 0.011,0.006 0.024,0.008 0.037,0.008 0.016,0 0.033,-0.004 0.047,-0.01 0.638,-0.341 2.262,-0.917 3.358,-0.917 1.239,0 2.008,0.51 2.008,1.374 0,0.775 -0.489,1.24 -2.021,1.927 -2.171,0.964 -3.323,2.423 -3.323,4.025 0,2.421 1.996,4.047 4.962,4.047 1.487,0 2.476,-0.363 2.934,-0.58 0.044,-0.021 0.052,-0.074 0.052,-0.121 L 4.701,10.617 C 4.692,10.587 4.672,10.562 4.643,10.551 4.631,10.545 4.616,10.542 4.602,10.542 c -0.014,0 -0.029,0.003 -0.042,0.009 -0.48,0.24 -1.518,0.831 -2.876,0.831 -1.324,0 -1.793,-0.66 -1.793,-1.227 0,-0.759 0.551,-1.244 2.21,-1.99 C 4.238,7.19 5.232,5.927 5.232,4.187 5.232,1.644 3.18,0 0,0"
         transform="translate(526.1364,63.094904)"
         id="path3101"
         style="fill:#ed1736;fill-opacity:1;fill-rule:nonzero;stroke:none" />
      <g
         id="g3123">
        <g
           clip-path="url(#clipPath3127)"
           id="g3125">
          <g
             transform="translate(536.6329,63.2413)"
             id="g3131">
            <path
               d="m 0,0 c -1.548,0 -2.487,0.032 -2.986,0.032 -0.048,0 -0.084,0.047 -0.084,0.097 l 0,13.413 c 0,0.046 0.031,0.097 0.077,0.097 0.813,0 2.169,0.063 3.619,0.063 1.856,0 2.986,-0.25 3.898,-0.864 C 5.425,12.253 5.943,11.309 5.943,10.247 5.943,8.96 5.193,7.914 3.889,7.346 5.44,6.873 6.399,5.638 6.399,4.086 6.399,2.995 5.962,2.028 5.138,1.288 4.123,0.408 2.491,0 0,0 m -0.29,2.311 0,0 c 0.216,0 0.816,-0.002 1.164,-0.002 1.41,0 2.252,0.694 2.252,1.853 0,1.373 -1.206,1.834 -2.332,1.834 l -1.084,0 0,-3.685 m 0,5.983 0,0 1.061,0 c 1.242,0 2.043,0.613 2.043,1.619 0,0.979 -0.663,1.539 -1.815,1.539 -0.191,0 -0.439,0 -0.671,0 -0.259,0 -0.499,-10e-4 -0.618,-0.003 l 0,-3.155"
               id="path3133"
               style="fill:#ed1736;fill-opacity:1;fill-rule:nonzero;stroke:none" />
          </g>
        </g>
      </g>
      <g
         id="g3155">
        <g
           clip-path="url(#clipPath3159)"
           id="g3157">
          <g
             transform="translate(520.3387,63.3598)"
             id="g3163">
            <path
               d="M 0,0 -2.912,0 C -2.946,0 -2.983,0.019 -2.998,0.055 L -7.319,8.514 -7.2,0.096 C -7.2,0.044 -7.242,0 -7.297,0 l -2.66,0 c -0.054,0 -0.099,0.044 -0.099,0.096 l 0,13.311 c 0,0.056 0.045,0.1 0.099,0.1 l 3.098,0 c 0.035,0 0.07,-0.024 0.086,-0.058 l 4.191,-8.258 -0.158,8.216 c 0,0.056 0.045,0.1 0.098,0.1 l 2.642,0 c 0.052,0 0.1,-0.044 0.1,-0.1 L 0.1,0.096 C 0.1,0.044 0.052,0 0,0"
               id="path3165"
               style="fill:#ed1736;fill-opacity:1;fill-rule:nonzero;stroke:none" />
          </g>
        </g>
      </g>
      <g
         id="g3187">
        <g
           clip-path="url(#clipPath3191)"
           id="g3189">
          <g
             transform="translate(525.8255,39.4373)"
             id="g3195">
            <path
               d="m 0,0 c -5.713,0 -8.437,3.79 -8.845,4.624 -0.035,0.071 -0.05,0.136 -0.05,0.192 0,0.151 0.107,0.243 0.241,0.243 0.026,0 0.052,-0.003 0.078,-0.01 0.189,-0.05 2.778,-1.149 5.868,-1.149 0.983,0 2.016,0.111 3.039,0.402 3.358,0.95 4.637,3.023 4.842,5.062 L -14.768,9.361 c -0.39,0 -0.953,0.211 -1.245,0.468 l -1.859,1.62 c -0.122,0.107 -0.18,0.205 -0.18,0.284 0,0.113 0.122,0.186 0.353,0.186 l 22.791,0.007 c -0.749,2.207 -2.888,3.898 -5.871,3.972 -0.608,0.015 -2.17,0.021 -4.199,0.021 -6.547,0 -17.964,-0.059 -17.964,-0.059 -0.387,0 -0.947,0.211 -1.244,0.471 l -4.439,3.892 c -0.12,0.107 -0.178,0.205 -0.178,0.283 0,0.113 0.122,0.185 0.354,0.185 0,0 24.426,0.037 27.682,0.037 3.707,0 9.562,-1.91 10.927,-8.802 l 9.851,-0.003 c 0.23,0 0.353,-0.074 0.353,-0.188 0,-0.078 -0.058,-0.175 -0.179,-0.28 L 18.329,9.826 C 18.033,9.571 17.476,9.358 17.084,9.358 L 10.256,9.364 C 10.032,5.189 6.19,0.216 0.47,0.008 0.311,0.003 0.154,0 0,0"
               id="path3197"
               style="fill:#ed1736;fill-opacity:1;fill-rule:nonzero;stroke:none" />
          </g>
        </g>
      </g>
    </g>
  </g>
</svg>
