<?xml version="1.0" encoding="utf-8"?>
<!-- Generator: Adobe Illustrator 16.0.0, SVG Export Plug-In . SVG Version: 6.00 Build 0)  -->
<!DOCTYPE svg PUBLIC "-//W3C//DTD SVG 1.1//EN" "http://www.w3.org/Graphics/SVG/1.1/DTD/svg11.dtd">
<svg version="1.1" id="Layer_2" xmlns="http://www.w3.org/2000/svg" xmlns:xlink="http://www.w3.org/1999/xlink" x="0px" y="0px"
	 width="123px" height="27px" viewBox="0 0 123 27" enable-background="new 0 0 123 27" xml:space="preserve">
<g>
	<g>
		<g>
			<path fill="#FFFFFF" d="M5.745,21.146c-2.479,0-4.443-0.576-4.806-0.689c-0.19-0.077-0.287-0.23-0.287-0.402v-0.097l0.249-1.267
				c0.038-0.191,0.171-0.25,0.324-0.25c0.038,0,0.077,0,0.134,0.02c0.401,0.077,2.345,0.635,4.176,0.635
				c1.563,0,2.956-0.462,2.956-2.092c0-1.648-1.43-1.822-3.28-2.093c-2.059-0.308-4.71-0.863-4.71-4.125
				c0-3.358,2.479-4.241,5.417-4.241c2.231,0,4.081,0.538,4.501,0.653c0.228,0.057,0.343,0.211,0.343,0.403v0.095l-0.268,1.248
				c-0.018,0.134-0.152,0.269-0.304,0.269c-0.02,0-0.04-0.02-0.058-0.02C9.215,9.002,7.804,8.618,6.126,8.618
				c-1.412,0-2.899,0.269-2.899,1.88c0,1.592,1.602,1.824,3.299,2.071c2.232,0.346,4.767,0.671,4.767,4.244
				C11.293,20.169,8.586,21.146,5.745,21.146z"/>
			<path fill="#FFFFFF" d="M17.709,21.188c-1.049,0-1.983-0.152-2.689-0.346l0.229,1.189v2.205c0,0.229-0.095,0.347-0.324,0.385
				l-1.869,0.345h-0.077c-0.171,0-0.305-0.114-0.305-0.306V12.782c0-1,0.343-1.286,1.202-1.555c1.144-0.403,2.612-0.614,3.89-0.614
				c3.681,0,4.157,2.245,4.157,5.295C21.923,18.941,21.256,21.188,17.709,21.188z M17.232,12.418c-0.877,0-2.002,0.306-2.002,0.306
				v6.467c0,0,0.782,0.229,1.812,0.229c1.735,0,2.27-0.654,2.27-3.57C19.312,12.744,18.682,12.418,17.232,12.418z"/>
			<path fill="#FFFFFF" d="M29.975,20.919c-0.667,0.151-1.583,0.269-2.65,0.269c-2.061,0-4.597-0.211-4.597-3.263
				c0-2.476,1.545-2.743,3.07-2.993l3.396-0.558v-0.613c0-0.539-0.058-0.922-0.535-1.134c-0.304-0.133-0.762-0.191-1.448-0.191
				c-1.297,0-2.709,0.384-3.281,0.538c-0.057,0-0.096,0.019-0.134,0.019c-0.094,0-0.19-0.038-0.209-0.172l-0.266-1.19v-0.077
				c0-0.173,0.133-0.25,0.228-0.288c0.458-0.173,2.213-0.652,4.158-0.652c1.354,0,2.27,0.192,2.88,0.537
				c0.972,0.537,1.163,1.439,1.163,2.476v5.296C31.749,20.361,31.272,20.611,29.975,20.919z M29.194,16.044l-2.365,0.386
				c-0.782,0.113-1.506,0.229-1.506,1.477c0,1.496,1.201,1.611,2.116,1.611c0.744,0,1.354-0.135,1.755-0.269V16.044z"/>
			<path fill="#FFFFFF" d="M38.552,12.589c-1.163,0-2.154,0.115-2.688,0.25v7.81c0,0.175-0.115,0.289-0.286,0.289h-1.946
				c-0.114,0-0.324-0.114-0.324-0.289v-8.29c0-0.749,0.438-0.979,1.354-1.248c0.84-0.269,2.193-0.46,3.28-0.479h0.324
				c0.267,0,0.267,0,0.4,0.058c0.076,0.039,0.172,0.116,0.172,0.308v1.247C38.839,12.437,38.82,12.589,38.552,12.589z"/>
			<path fill="#FFFFFF" d="M48.534,16.639c0,0.211-0.114,0.441-0.4,0.441h-6.389c0,0.884,0.247,1.361,0.763,1.766
				c0.495,0.403,1.22,0.575,2.25,0.575c1.182,0,2.079-0.288,2.67-0.46c0.038-0.02,0.057-0.02,0.095-0.02
				c0.116,0,0.21,0.076,0.267,0.269l0.248,0.979c0,0.018,0.019,0.058,0.019,0.094c0,0.154-0.095,0.23-0.229,0.287
				c-0.649,0.271-1.946,0.615-3.452,0.615c-3.738,0-5.207-1.479-5.207-5.237c0-3.607,0.993-5.334,4.71-5.334
				c1.927,0,3.109,0.498,3.796,1.42c0.647,0.863,0.857,2.091,0.857,3.683v0.922H48.534z M45.846,13.78
				c-0.249-1.056-0.821-1.401-1.946-1.401c-1.277,0-1.812,0.383-2.021,1.343c-0.134,0.537-0.134,1.094-0.152,1.728l4.271-0.021
				C45.998,14.814,45.979,14.298,45.846,13.78z"/>
			<path fill="#FFFFFF" d="M56.915,20.938h-6.35c-0.171,0-0.324-0.135-0.324-0.308V7.063c0-0.172,0.153-0.307,0.324-0.307h6.617
				c3.051,0,4.291,1.132,4.291,3.473c0,2.035-1.258,2.802-2.86,3.089v0.634c2.022,0.19,3.338,1.018,3.338,3.28
				C61.95,19.805,60.157,20.938,56.915,20.938z M56.668,8.732h-3.681v4.107l3.547-0.153c1.45-0.059,2.193-0.576,2.193-2.035
				C58.727,9.309,58.079,8.732,56.668,8.732z M56.572,14.701l-3.585-0.116v4.376h3.585c1.926,0,2.556-0.844,2.556-2.016
				C59.128,15.373,58.612,14.758,56.572,14.701z"/>
			<path fill="#FFFFFF" d="M70.229,20.919c-0.668,0.151-1.582,0.269-2.65,0.269c-2.061,0-4.596-0.211-4.596-3.263
				c0-2.476,1.545-2.743,3.07-2.993l3.396-0.558v-0.613c0-0.539-0.06-0.922-0.535-1.134c-0.304-0.133-0.763-0.191-1.45-0.191
				c-1.296,0-2.707,0.384-3.279,0.538c-0.057,0-0.096,0.019-0.133,0.019c-0.096,0-0.189-0.038-0.21-0.172l-0.267-1.19v-0.077
				c0-0.173,0.132-0.25,0.228-0.288c0.459-0.173,2.214-0.652,4.157-0.652c1.355,0,2.27,0.192,2.881,0.537
				c0.975,0.537,1.162,1.439,1.162,2.476v5.296C72.001,20.361,71.525,20.611,70.229,20.919z M69.447,16.044l-2.365,0.386
				c-0.782,0.113-1.506,0.229-1.506,1.477c0,1.496,1.201,1.611,2.115,1.611c0.744,0,1.356-0.135,1.756-0.269V16.044z"/>
			<path fill="#FFFFFF" d="M82.2,20.938h-1.966c-0.17,0-0.305-0.113-0.305-0.289v-6.772c0-1.114-0.418-1.497-1.431-1.497
				c-1.144,0-2.382,0.326-2.382,0.326v7.943c0,0.176-0.113,0.289-0.286,0.289h-1.946c-0.191,0-0.322-0.113-0.322-0.289v-8.27
				c0-0.729,0.362-0.979,1.431-1.267c0.971-0.269,2.575-0.498,3.793-0.498c2.385,0,3.7,0.614,3.7,2.916v7.118
				C82.486,20.823,82.372,20.938,82.2,20.938z"/>
			<path fill="#FFFFFF" d="M93.259,20.766c0,0.076-0.073,0.172-0.19,0.172h-2.557c-0.095,0-0.188,0-0.285-0.113l-2.955-4.051h-0.647
				v3.875c0,0.176-0.097,0.289-0.288,0.289h-1.962c-0.172,0-0.306-0.113-0.306-0.289V7.236c0-0.23,0.096-0.345,0.322-0.403
				l1.87-0.326h0.074c0.173,0,0.288,0.115,0.288,0.326v8.213h0.648l3.013-4.048c0.075-0.116,0.151-0.134,0.249-0.134l2.324,0.057
				c0.135,0,0.189,0.096,0.189,0.172c0,0.038-0.018,0.058-0.036,0.096l-3.604,4.567l3.814,4.912
				C93.239,20.688,93.259,20.727,93.259,20.766z"/>
		</g>
	</g>
	<g>
		
			<radialGradient id="SVGID_1_" cx="824.0557" cy="188.1514" r="22.8508" gradientTransform="matrix(0.7017 0 0 -0.706 -474.4252 147.8662)" gradientUnits="userSpaceOnUse">
			<stop  offset="0.2135" style="stop-color:#D8000B"/>
			<stop  offset="0.39" style="stop-color:#D5010C"/>
			<stop  offset="0.5359" style="stop-color:#CA050D"/>
			<stop  offset="0.6708" style="stop-color:#B90B11"/>
			<stop  offset="0.7992" style="stop-color:#A11315"/>
			<stop  offset="0.9218" style="stop-color:#821E1B"/>
			<stop  offset="1" style="stop-color:#6A261F"/>
		</radialGradient>
		<path fill="url(#SVGID_1_)" d="M109.143,15.618c2.811,0.001,5.241,0.024,6.967,0.665c2.309-3.088,3.011-6.971,1.483-10.319
			c-2.092-4.589-7.655-6.643-13.102-5.149c-0.187,0.069-0.371,0.141-0.556,0.218c-4.012,1.667-6.312,6.07-4.884,9.607
			C100.663,14.625,104.003,15.611,109.143,15.618z"/>
		
			<radialGradient id="SVGID_2_" cx="841.5742" cy="186.3799" r="26.7132" gradientTransform="matrix(0.7017 0 0 -0.706 -474.4252 147.8662)" gradientUnits="userSpaceOnUse">
			<stop  offset="0.0056" style="stop-color:#EA6642"/>
			<stop  offset="0.2159" style="stop-color:#E83E29"/>
			<stop  offset="0.4754" style="stop-color:#E6110E"/>
			<stop  offset="0.6067" style="stop-color:#E50004"/>
			<stop  offset="1" style="stop-color:#7B231D"/>
		</radialGradient>
		<path fill="url(#SVGID_2_)" d="M109.083,0c-1.821,0-3.562,0.368-5.146,1.032c0.184-0.077,0.367-0.149,0.555-0.218
			c5.445-1.494,11.01,0.561,13.102,5.149c1.526,3.349,0.824,7.231-1.484,10.319c1.109,0.411,1.932,1.079,2.369,2.163
			c1.396,3.455-0.955,6.172-4.388,7.576l-0.004,0.004c4.933-1.995,8.414-6.851,8.414-12.525C122.5,6.045,116.491,0,109.083,0z"/>
		<path fill="#FFFFFF" d="M112.521,19.573V5.739c0-0.275-0.223-0.5-0.496-0.5h-3.123c-0.219,0-0.344,0.05-0.543,0.125l-4.026,2.085
			c-0.247,0.101-0.347,0.25-0.347,0.5v2.273c0,0.266,0.216,0.482,0.479,0.482h2.577V21.6c0.049-0.01,0.094-0.013,0.144-0.019
			C110.436,21.055,112.521,19.573,112.521,19.573z"/>
		<path fill="#FFFFFF" d="M107.538,23.816h4.485c0.274,0,0.496-0.228,0.496-0.502v-3.741c0,0-2.086,1.479-5.336,2.008
			c-0.05,0.006-0.095,0.009-0.144,0.019v1.715C107.041,23.59,107.266,23.816,107.538,23.816z"/>
		
			<radialGradient id="SVGID_3_" cx="841.5732" cy="186.3789" r="28.4293" gradientTransform="matrix(0.7017 0 0 -0.706 -474.4252 147.8662)" gradientUnits="userSpaceOnUse">
			<stop  offset="0" style="stop-color:#E50004"/>
			<stop  offset="0.3371" style="stop-color:#D8000B"/>
			<stop  offset="0.4413" style="stop-color:#CF030D"/>
			<stop  offset="0.6104" style="stop-color:#B70B11"/>
			<stop  offset="0.8221" style="stop-color:#901918"/>
			<stop  offset="1" style="stop-color:#6A261F"/>
		</radialGradient>
		<path fill="url(#SVGID_3_)" d="M118.477,18.445c-0.438-1.086-1.259-1.752-2.367-2.162c-0.94,1.257-2.151,2.383-3.588,3.29
			c0,0-2.086,1.479-5.338,2.008c-4.619,0.694-8.863-0.986-11.023-4.461c1.57,5.696,6.76,9.88,12.924,9.88
			c1.842,0,3.592-0.377,5.186-1.053C117.604,24.521,119.85,21.841,118.477,18.445z"/>
		<path fill="#EC7C59" d="M107.538,23.816h4.485c0.274,0,0.496-0.228,0.496-0.502v-3.741c0,0-2.086,1.479-5.336,2.008
			c-0.05,0.006-0.095,0.009-0.144,0.019v1.715C107.041,23.59,107.266,23.816,107.538,23.816z"/>
		<path fill="#E50004" d="M104.428,0.716c-0.002,0.001-0.531,0.211-0.531,0.211c-4.125,1.715-6.287,6.138-4.844,9.711
			c0.021,0.057,0.021,0.057,0,0c-1.396-3.461,0.915-7.835,4.928-9.505c0,0.001,0.526-0.208,0.526-0.208
			c4.306-1.604,10.776,0.229,12.985,5.084c2.34,5.14-0.643,11.577-6.645,14.347c-5.559,2.563-11.836,1.146-14.597-3.297
			c-0.033-0.052-0.101-0.068-0.153-0.035c-0.052,0.033-0.065,0.103-0.035,0.153c2.822,4.539,9.22,5.991,14.879,3.38
			c6.111-2.82,9.144-9.389,6.752-14.642C115.438,0.953,108.826-0.921,104.428,0.716z"/>
	</g>
</g>
</svg>
