<svg viewBox="0 0 24 24" xmlns="http://www.w3.org/2000/svg"><g id="icon"><g fill="none" stroke="var(--svg_color)" stroke-linecap="round" stroke-linejoin="round" stroke-miterlimit="10"><path d="M13.5 13l-2 1.25-2-1.25v-2l2-1.25 2 1.25z"/><path d="M14 3L11.5.5 9 3 6.5 9.5v5L9 21l2.5 2.5L14 21l2.5-6.5v-5z"/><path d="M6.5 14.5l5 3 6.573 1.584 3.643-1.409-.972-3.399L16.5 9.5l-5-3-6.574-1.584-3.642 1.409.971 3.399z"/><path d="M16.5 14.5l-5 3-6.574 1.584-3.642-1.409.971-3.399L6.5 9.5l5-3 6.573-1.584 3.643 1.409-.972 3.399z"/></g></g></svg>
