<svg viewBox="0 0 24 24" xmlns="http://www.w3.org/2000/svg"><g id="icon"><path fill="none" stroke="var(--svg_color)" stroke-linecap="round" stroke-linejoin="round" stroke-miterlimit="10" d="M14.5 16l1.5-1.5 1.499 1.5-1.5 1.5z" stroke-width=".99999"/><path fill="none" stroke="var(--svg_color)" stroke-linecap="round" stroke-linejoin="round" stroke-miterlimit="10" d="M5.5 1.5v19M5.5 3.5h8M11.5 12.5h11"/><path fill="var(--svg_color)" d="M20.566 14.766h.005-.005M20.001 14a.195.195 0 00-.141.059l-.799.799a.2.2 0 000 .283l.799.799a.2.2 0 00.282 0l.799-.799a.2.2 0 000-.283l-.799-.799a.195.195 0 00-.141-.059z"/><path fill="none" stroke="var(--svg_color)" stroke-linecap="round" stroke-linejoin="round" stroke-miterlimit="10" d="M18.5 8.22V.5h-3v7.72l-4 2.363v6.5l5.5 3.25 5.5-3.25v-6.5zM14.5.5h5M20.5 3.5h1M10.5 23.5H.5v-2l5-1 5 1z"/></g></svg>
