<svg viewBox="0 0 24 24" xmlns="http://www.w3.org/2000/svg"><g id="icon"><path fill="none" stroke="var(--svg_color)" stroke-linecap="round" stroke-linejoin="round" stroke-miterlimit="10" d="M1.5 20.5l1.5 3h16.861l1.639-3.146-8-9.854v-8h-4v8zM15.5 1.5l-1 1h-6l-1-1 1-1h6zM13.5 4.5h-2M13.5 8.5h-2M13.5 6.5h-2M7.5 16.5h8"/><path fill="none" stroke="var(--svg_color)" stroke-linecap="round" stroke-linejoin="round" stroke-miterlimit="10" d="M7.5 20L9 18.5l1.499 1.5-1.5 1.5z" stroke-width=".99999"/><path fill="var(--svg_color)" d="M14.51 18.788h.005-.005M14 18a.279.279 0 00-.197.081l-.721.721a.281.281 0 000 .395l.721.721a.279.279 0 00.394.001l.721-.721a.281.281 0 000-.395l-.721-.721A.275.275 0 0014 18zM17.51 20.788h.005-.005M17 20a.277.277 0 00-.197.081l-.721.721a.281.281 0 000 .395l.721.721a.277.277 0 00.394.001l.721-.721a.281.281 0 000-.395l-.721-.721A.274.274 0 0017 20z"/></g></svg>
