<svg viewBox="0 0 24 24" xmlns="http://www.w3.org/2000/svg"><g id="icon"><path fill="none" stroke="var(--svg_color)" stroke-linecap="round" stroke-linejoin="round" stroke-miterlimit="10" d="M11.5 4v16.5M6 7l1.5 1L9 7M5.5 19.5h2v-1.75l1-1.25M7.5 8v3l-2 2v1.5M2.5 10.5h2M13.5 13.5h-4M7.5 1.5v3M1.3 16.5h3.2"/><path fill="none" stroke="var(--svg_color)" stroke-linecap="round" stroke-linejoin="round" stroke-miterlimit="10" d="M11.5 20.5l2.5 2h4l4.5-7.5v-3l-2-1.5V7l-2-1V4l-3-2.5-4 2.5-4-2.5-3 2.5v2l-2 1v3.5l-2 1V15l4 7.5h4z"/><path fill="none" stroke="var(--svg_color)" stroke-linecap="round" stroke-linejoin="round" stroke-miterlimit="10" d="M17 7l-1.5 1L14 7M17.5 19.5h-2v-1.75l-1-1.25M15.5 8v3l2 2v1.5M20.5 10.5h-2M15.5 1.5v3M21.6 16.5h-3.1"/></g></svg>
