<svg viewBox="0 0 24 24" xmlns="http://www.w3.org/2000/svg"><g id="icon"><path fill="none" stroke="var(--svg_color)" stroke-linecap="round" stroke-linejoin="round" stroke-miterlimit="10" d="M16 10.5l4-4-4-4H7l-4 4 4 4z"/><path fill="none" stroke="var(--svg_color)" stroke-linecap="round" stroke-linejoin="round" stroke-miterlimit="10" d="M10.5 7L9 8 7.5 7V5.5l1.5-1 1.5 1zM12.5 7L14 8l1.5-1V5.5l-1.5-1-1.5 1zM11.5.5v2M15.5 23.5h-8L6 16l2.499-2.5H14.5L17 16zM11.5 10.5v3M7.1 21.5h8.8M2.5 16l.5 3 3.405-.973M.5 12.5V14l2 2 2-2v-1.5"/><path fill="none" stroke="var(--svg_color)" stroke-linecap="round" stroke-linejoin="round" stroke-miterlimit="10" d="M20.5 16l-.5 3-3.375-1.125M22.5 12.5V14l-2 2-2-2v-1.5"/></g></svg>
