<?xml version="1.0" encoding="utf-8"?>
<!-- Generator: Adobe Illustrator 15.0.2, SVG Export Plug-In  -->
<!DOCTYPE svg PUBLIC "-//W3C//DTD SVG 1.1//EN" "http://www.w3.org/Graphics/SVG/1.1/DTD/svg11.dtd" [
	<!ENTITY ns_flows "http://ns.adobe.com/Flows/1.0/">
]>
<svg version="1.1"
	 xmlns="http://www.w3.org/2000/svg" xmlns:xlink="http://www.w3.org/1999/xlink" xmlns:a="http://ns.adobe.com/AdobeSVGViewerExtensions/3.0/"
	 x="0px" y="0px" width="50px" height="50px" viewBox="-8.5 -18.084 50 50"
	 overflow="visible" enable-background="new -8.5 -18.084 50 50" xml:space="preserve">
<defs>
</defs>
<path d="M21.438,16.173c2.174-1.645,3.587-4.244,3.587-7.173c0-4.962-4.037-9-9-9c-4.962,0-9,4.038-9,9
	c0,3.069,1.546,5.781,3.898,7.406C4.566,18.7,0,24.777,0,31.916h3c0-7.444,6.056-13.5,13.499-13.5c7.444,0,13.501,6.056,13.501,13.5
	h3C33,24.538,28.132,18.277,21.438,16.173z M16.025,3c3.309,0,6,2.691,6,6s-2.691,6-6,6s-6-2.691-6-6S12.717,3,16.025,3z"/>
</svg>
