<svg xmlns="http://www.w3.org/2000/svg" xmlns:xlink="http://www.w3.org/1999/xlink" viewBox="0 0 175 25">
    <defs>
        <path id="a" d="M.169.023h16.736v24.58H.169z"/>
        <path id="c" d="M.06.33h7.062v7.13H.06z"/>
    </defs>
    <g fill="none" fill-rule="evenodd">
        <path fill="#591E1E" d="M10.698.863L6.169 9.976h-.066V.863H0v23.749h6.103l.039-11.102 4.818 11.102h6.957L11.288 11.24 17.195.863zM125.69.863l-4.528 9.113h-.066V.863h-6.103v23.749h6.103l.038-11.102 4.82 11.102h6.956L126.28 11.24 132.188.863z"/>
        <g transform="translate(17.226 .374)">
            <mask id="b" fill="#fff">
                <use xlink:href="#a"/>
            </mask>
            <path fill="#591E1E" d="M6.535 16.338c.043 1.053.136 1.89.279 2.51.142.622.35 1.055.623 1.299s.64.365 1.1.365c.46 0 .825-.121 1.099-.365.273-.244.481-.677.624-1.298.141-.62.234-1.458.279-2.511.043-1.053.065-2.378.065-3.975s-.022-2.922-.065-3.975c-.045-1.053-.138-1.89-.28-2.511-.142-.62-.35-1.053-.623-1.298-.274-.243-.64-.365-1.1-.365-.459 0-.826.122-1.099.365-.273.245-.481.677-.623 1.298-.143.62-.236 1.458-.28 2.511a98.767 98.767 0 0 0-.065 3.975c0 1.597.022 2.922.066 3.975M.595 6.69c.284-1.563.755-2.838 1.411-3.824A5.753 5.753 0 0 1 4.6.704C5.67.25 6.983.023 8.537.023c1.553 0 2.865.227 3.938.681a5.756 5.756 0 0 1 2.592 2.163c.656.986 1.126 2.261 1.411 3.824.284 1.564.427 3.455.427 5.672 0 2.217-.143 4.108-.427 5.67-.285 1.564-.755 2.84-1.411 3.826-.656.987-1.52 1.692-2.592 2.112-1.073.422-2.385.632-3.938.632-1.554 0-2.867-.21-3.938-.632-1.072-.42-1.937-1.125-2.593-2.112-.656-.986-1.127-2.262-1.41-3.825C.31 16.47.168 14.58.168 12.363S.31 8.255.595 6.69" mask="url(#b)"/>
        </g>
        <path fill="#591E1E" d="M43.647 20.155c.591 0 1.06-.083 1.411-.25.35-.166.618-.516.804-1.048.186-.531.306-1.285.361-2.262.055-.975.083-2.261.083-3.858 0-1.596-.028-2.882-.083-3.858-.055-.976-.175-1.73-.36-2.262-.187-.532-.455-.881-.805-1.048-.35-.166-.82-.25-1.41-.25h-1.215v14.836h1.214zM45.19.863c1.773 0 3.15.327 4.135.98a6.072 6.072 0 0 1 2.215 2.629c.493 1.097.793 2.361.903 3.791.11 1.43.164 2.922.164 4.474 0 1.553-.055 3.044-.164 4.474-.11 1.43-.41 2.694-.903 3.792a6.07 6.07 0 0 1-2.215 2.628c-.984.654-2.362.98-4.135.98h-8.86V.864h8.86zM68.827.863v5.055H61.05v4.059h6.894v4.856H61.05v4.723h8.072v5.056H54.946V.862zM79.853.863l2.461 14.07h.066L84.841.863h8.729v23.749h-5.71V6.916h-.065l-3.25 17.696h-4.397L76.9 6.916h-.066v17.696h-5.71V.862zM101.095 24.612h-6.399l5.612-23.75h7.679l5.71 23.75h-6.498L104.18 5.719h-.065zM147.9.863v5.055h-7.777v4.059h6.893v4.856h-6.893v4.723h8.073v5.056H134.02V.862zM157.745 10.908c.875 0 1.52-.26 1.936-.782.416-.52.624-1.202.624-2.046 0-.998-.202-1.707-.607-2.128-.405-.421-1.066-.632-1.986-.632h-1.18v5.588h1.213zm1.33 4.34c-.252-.099-.564-.149-.936-.149h-1.608v9.513h-6.103V.863h9.549c1.16 0 2.15.155 2.97.465.82.311 1.487.748 2.002 1.314a5.102 5.102 0 0 1 1.115 2.012c.23.777.352 1.62.345 2.528-.02 2.356-.829 6.994-4.838 7.323l-2.496.743z"/>
        <path fill="#591E1E" d="M161.713 11.198l6.946 13.335h-6.957l-4.534-10.48"/>
        <g transform="translate(167.562 .374)">
            <mask id="d" fill="#fff">
                <use xlink:href="#c"/>
            </mask>
            <path fill="#591E1E" d="M3.99 3.408c.096-.071.143-.18.143-.329 0-.134-.047-.236-.142-.303-.096-.068-.229-.102-.4-.102h-.467v.84h.467c.171 0 .304-.035.4-.106zM3.44 1.96c.507 0 .905.084 1.194.251.289.168.433.48.433.936 0 .174-.023.322-.072.444a.961.961 0 0 1-.175.3.72.72 0 0 1-.467.24l.81 1.476H4.19l-.762-1.38h-.305v1.38H2.25V1.96h1.19zM1.887 5.79c.406.425.974.637 1.704.637s1.297-.212 1.703-.636c.406-.425.61-1.052.61-1.882 0-.83-.204-1.456-.61-1.881-.406-.425-.973-.637-1.703-.637-.73 0-1.298.212-1.704.637-.406.425-.61 1.051-.61 1.881 0 .83.204 1.457.61 1.882zM.336 2.516A3.553 3.553 0 0 1 2.216.61C2.644.424 3.102.33 3.59.33c.488 0 .947.094 1.375.28a3.555 3.555 0 0 1 1.88 1.906c.184.434.276.9.276 1.394a3.552 3.552 0 0 1-1.033 2.528c-.32.321-.694.572-1.123.752a3.52 3.52 0 0 1-1.375.27c-.49 0-.947-.09-1.375-.27a3.461 3.461 0 0 1-1.124-.752A3.552 3.552 0 0 1 .06 3.909c0-.495.091-.96.276-1.394z" mask="url(#d)"/>
        </g>
        <path fill="#591E1E" d="M100.593 14.804h6.893v4.856h-6.893"/>
    </g>
</svg>
