<svg xmlns="http://www.w3.org/2000/svg" xmlns:xlink="http://www.w3.org/1999/xlink" viewBox="0 0 328 166">
  <defs>
    <filter id="ochelogo-a" width="120.5%" height="147.3%" x="-10.2%" y="-23.3%" filterUnits="objectBoundingBox">
      <feOffset in="SourceAlpha" result="shadowOffsetOuter1"></feOffset>
      <feGaussianBlur in="shadowOffsetOuter1" result="shadowBlurOuter1" stdDeviation="10"></feGaussianBlur>
      <feColorMatrix in="shadowBlurOuter1" result="shadowMatrixOuter1" values="0 0 0 0 0.262745098   0 0 0 0 0.152941176   0 0 0 0 0.219607843  0 0 0 1 0"></feColorMatrix>
      <feMerge>
        <feMergeNode in="shadowMatrixOuter1"></feMergeNode>
        <feMergeNode in="SourceGraphic"></feMergeNode>
      </feMerge>
    </filter>
    <polygon id="ochelogo-b" points=".033 .433 76.254 .433 76.254 65.322 .033 65.322"></polygon>
    <polygon id="ochelogo-d" points=".223 .281 86.728 .281 86.728 8.201 .223 8.201"></polygon>
  </defs>
  <g fill="none" fill-rule="evenodd" filter="url(#ochelogo-a)" transform="translate(17 19)">
    <path fill="#00000E" d="M38.3604192,66.9455106 L37.9247744,66.9455106 C26.6134323,66.9004979 17.3756711,58.1625319 16.5561523,47.1064085 L18.8814267,45.5073574 L16.5605583,43.842434 C17.4147744,32.7391021 26.7461635,24.0154085 38.0955075,24.0604213 L38.1885846,24.0604213 C49.5384793,24.0154085 58.8698684,32.7391021 59.7235338,43.842434 L57.4032162,45.5073574 L59.7284906,47.1069574 C58.9089718,58.1630809 49.6712105,66.9004979 38.3604192,66.9455106 Z M60.4989925,45.7851191 C60.4026109,45.7137574 60.0473759,45.4996723 60.0473759,45.4996723 L60.493485,45.1516468 C61.1791711,44.6674851 61.2314925,43.8567064 61.2188252,43.7068468 L61.2078102,43.567966 C60.7303083,37.8579319 58.1412237,32.5563064 53.916406,28.6396468 C49.6299041,24.6664468 44.0447293,22.4778383 38.1902368,22.4778383 L38.094406,22.4772894 C32.2399135,22.4772894 26.6547387,24.6658979 22.3682368,28.6396468 C18.1434192,32.5557574 15.5537838,37.8579319 15.0768327,43.567966 L15.0658177,43.7062979 C15.0531504,43.8567064 15.1054718,44.6674851 15.7911579,45.1516468 L16.2372669,45.4991234 C16.2372669,45.4991234 15.882032,45.7137574 15.7856504,45.7845702 C15.7311259,45.8251915 14.9925677,46.3466809 15.0592086,47.222783 L15.0691222,47.3468426 C15.5240432,53.0629149 18.0944023,58.377166 22.3071034,62.3102936 C26.576532,66.297217 32.1517932,68.5050383 38.0051842,68.5286426 L38.2794586,68.5286426 C44.1328496,68.5055872 49.7081109,66.297217 53.9775395,62.3108426 C58.1896898,58.377166 60.7605996,53.0634638 61.2155207,47.3473915 L61.2254342,47.222783 C61.2915244,46.3472298 60.5535169,45.8257404 60.4989925,45.7851191 Z"></path>
    <g transform="translate(0 12.626)">
      <mask id="ochelogo-c" fill="#fff">
        <use xlink:href="#ochelogo-b"></use>
      </mask>
      <path fill="#00000E" d="M61.9975883,34.6548894 L61.9871241,34.7833404 C61.516782,40.6909915 58.8605056,46.1830979 54.5062613,50.2479702 C50.094188,54.3682851 44.3322218,56.6507617 38.2811109,56.6749149 L38.0029812,56.674366 C31.9524211,56.6502128 26.1904549,54.3682851 21.7778308,50.2479702 C17.4241372,46.1825489 14.7673102,40.6904426 14.296968,34.7833404 L14.2870545,34.6543404 C14.2231673,33.8111745 14.643391,33.221617 14.9754944,32.8735915 C14.1774549,31.8750766 14.3052293,30.8782085 14.3052293,30.8782085 C14.798703,24.9760468 17.4748064,19.496566 21.8411673,15.4487106 C26.2714154,11.3421191 32.0438459,9.08050213 38.0949568,9.08050213 L38.1891353,9.08050213 C44.240797,9.08050213 50.0132274,11.3421191 54.4434756,15.4492596 C58.8092857,19.496566 61.4859398,24.9760468 61.9788628,30.8782085 C61.9788628,30.8782085 62.1066372,31.8756255 61.3091485,32.8741404 C61.6412519,33.222166 62.0609248,33.8111745 61.9975883,34.6548894 Z M68.042641,28.3119319 L67.9886673,28.027583 L67.9165188,27.6208213 C66.7010094,20.7415532 63.0688008,14.4512936 57.6896071,9.90884681 C52.2520338,5.31699574 45.3268797,2.78749787 38.1913383,2.78749787 L38.0933045,2.78694894 C30.9577632,2.78694894 24.032609,5.31644681 18.594485,9.90884681 C13.2152914,14.4512936 9.58363346,20.7415532 8.36812406,27.6208213 L8.29597556,28.027034 L8.24145113,28.3119319 C7.83940226,30.2222298 5.72892105,32.0984936 4.57344361,32.8681021 C5.72176128,33.5120043 7.83169173,35.1039191 8.30038158,37.7404596 L8.30864286,37.7832766 C9.45090226,44.7229277 13.0396015,51.0812553 18.4149398,55.6928681 C23.8486579,60.3555319 30.7958421,62.9388255 37.9770959,62.9673702 L38.307547,62.9673702 C45.4888008,62.9388255 52.435985,60.3555319 57.869703,55.693417 C63.2444906,51.0818043 66.8331898,44.7229277 67.976,37.7832766 L67.9837105,37.7410085 C68.4529511,35.1039191 70.5628816,33.5120043 71.7111992,32.8681021 C70.5557218,32.0990426 68.4452406,30.2222298 68.042641,28.3119319 Z" mask="url(#ochelogo-c)"></path>
      <path fill="#00000E" d="M68.7409944,37.9034936 L68.7387914,37.9139234 C67.5678929,45.0270383 63.887218,51.5484 58.3747425,56.278583 C52.8016842,61.0609149 45.6760564,63.7106298 38.30975,63.7391745 L37.9440508,63.7386255 C30.5782951,63.7100809 23.4526673,61.060366 17.879609,56.278034 C12.3665827,51.5478511 8.68590789,45.0264894 7.5150094,37.9133745 L7.51280639,37.9029447 C6.81445301,34.8514085 3.60136654,33.1974638 3.56556767,33.1815447 L2.87878008,32.8790809 L3.52426128,32.4964723 C3.56226316,32.473966 6.99565038,30.2612043 7.44341165,28.1362723 L7.50950188,27.8590596 L7.57504135,27.4868809 C8.82194361,20.4308553 12.5466786,13.9792085 18.0635602,9.3198383 C23.6410244,4.60996596 30.7440714,2.01569362 38.0635639,2.01569362 L38.1902368,2.01569362 C45.5097293,2.01569362 52.6127763,4.60996596 58.1902406,9.32038723 C63.7071222,13.9792085 67.4324079,20.4308553 68.6787594,27.4868809 L68.7448496,27.8596085 L68.8109398,28.1368213 C69.2581504,30.2612043 72.6915376,32.4745149 72.7295395,32.4970213 L73.3755714,32.8796298 L72.6887838,33.1815447 C72.6524342,33.1980128 69.4393477,34.8519574 68.7409944,37.9034936 Z M70.2021391,26.5317319 C67.3668684,11.5743191 53.9885545,0.370531915 38.1450752,0.433110638 L38.1092763,0.433110638 C22.2652462,0.369982979 8.88748308,11.5737702 6.05166165,26.5317319 C5.28831955,30.5581787 0,32.8906085 0,32.8906085 C0,32.8906085 5.25252068,34.9013617 5.94481579,38.657183 C8.72776504,53.7556723 21.8962425,65.2586298 37.8498722,65.3217574 L38.4039286,65.3223064 C54.3575583,65.2591787 67.5265865,53.7562213 70.308985,38.657183 C71.0012801,34.9019106 76.2538008,32.8906085 76.2538008,32.8906085 C76.2538008,32.8906085 70.9654812,30.5581787 70.2021391,26.5317319 Z" mask="url(#ochelogo-c)"></path>
    </g>
    <path fill="#00000E" d="M94.5674023,47.222783 L94.576765,47.3468426 C95.0316861,53.0629149 97.6025959,58.377166 101.815297,62.3102936 C106.084726,66.297217 111.659436,68.5050383 117.513378,68.5286426 L117.787102,68.5286426 C123.472513,68.5061362 128.891361,66.4168851 133.11012,62.6451447 L132.026791,61.5653872 C128.25359,64.8924894 123.302331,66.9241021 117.868062,66.9455106 L117.432417,66.9455106 C106.121075,66.9004979 96.8838647,58.1625319 96.0643459,47.1064085 L98.3896203,45.5073574 L96.0687519,43.842434 C96.922968,32.7391021 106.253806,24.0154085 117.603701,24.0604213 L117.696778,24.0604213 C123.055594,24.0395617 127.963344,25.9745617 131.742053,29.1907787 L132.825932,28.1104723 C128.623695,24.4748681 123.285258,22.4778383 117.69788,22.4778383 L117.6026,22.4772894 C111.748107,22.4772894 106.162932,24.6658979 101.87643,28.6396468 C97.6516128,32.5557574 95.0619774,37.8579319 94.5844756,43.567966 L94.5734605,43.7062979 C94.561344,43.8567064 94.6136654,44.6674851 95.2988008,45.1516468 L95.7454605,45.4991234 C95.7454605,45.4991234 95.3896748,45.7137574 95.293844,45.7845702 C95.2387688,45.8251915 94.5007613,46.3466809 94.5674023,47.222783"></path>
    <path fill="#00000E" d="M138.676019,68.1926936 C138.414962,68.4325787 138.152805,68.6724638 137.882936,68.9041149 C132.309327,73.6864468 125.18425,76.3361617 117.817944,76.3647064 L117.452244,76.3641574 C110.085938,76.3356128 102.96031,73.6858979 97.3872519,68.903566 C91.8747763,64.173383 88.1935508,57.6520213 87.023203,50.5389064 L87.021,50.5284766 C86.3226466,47.4769404 83.1095602,45.8229957 83.0737613,45.8070766 L82.3869737,45.5046128 L83.0324549,45.1220043 C83.0704568,45.0994979 86.503844,42.8867362 86.9516053,40.7618043 L87.0171447,40.4845915 L87.083235,40.1124128 C88.3301372,33.0563872 92.0548722,26.6047404 97.5717538,21.9453702 C103.149218,17.2354979 110.252265,14.6412255 117.571758,14.6412255 L117.69843,14.6412255 C125.017923,14.6412255 132.12097,17.2354979 137.698434,21.9459191 C137.935258,22.1457319 138.16437,22.3537787 138.394585,22.5601787 L139.595774,21.3629489 C135.338462,16.5690894 126.180009,12.9378766 117.652718,13.0586426 L117.616919,13.0586426 C101.77344,12.9955149 88.3956767,24.1993021 85.5598553,39.1572638 C84.7965132,43.1837106 79.5081936,45.5161404 79.5081936,45.5161404 C79.5081936,45.5161404 84.7607143,47.5268936 85.4524586,51.2827149 C88.2359586,66.3812043 101.403885,77.8841617 117.358066,77.9472894 L117.912122,77.9478383 C126.383237,77.9143532 134.068979,74.6547702 139.832047,69.3449106 L138.676019,68.1926936"></path>
    <path fill="#00000E" d="M117.699532 15.4130298L117.601498 15.4124809C110.465406 15.4124809 103.540803 17.9419787 98.1026786 22.5343787 92.723485 27.0768255 89.0918271 33.3670851 87.8763177 40.2463532L87.8036184 40.652566 87.7496447 40.9374638C87.3475959 42.8477617 85.2365639 44.7240255 84.0816372 45.493634 85.2299549 46.1375362 87.3398853 47.7294511 87.8085752 50.3659915L87.8168365 50.4088085C88.9590959 57.3484596 92.5477951 63.7067872 97.9231335 68.3184 103.356852 72.9810638 110.304036 75.5643574 117.485289 75.5929021L117.815741 75.5929021C124.996994 75.5643574 131.943628 72.9810638 137.377346 68.3189489 137.632895 68.0999234 137.880733 67.8732128 138.128021 67.6465021L133.658118 63.1913362C129.29341 67.1079957 123.680147 69.2768426 117.789305 69.3004468L117.511175 69.2998979C111.460615 69.2757447 105.698648 66.993817 101.286024 62.8735021 96.9323308 58.8080809 94.2755038 53.3159745 93.8051617 47.4088723L93.7952481 47.2798723C93.7313609 46.4367064 94.1515846 45.8471489 94.483688 45.4991234 93.6856485 44.5006085 93.8134229 43.5037404 93.8134229 43.5037404 94.3068966 37.6015787 96.983 32.1220979 101.349361 28.0742426 105.779058 23.9676511 111.552039 21.706034 117.60315 21.706034L117.697329 21.706034C123.490688 21.706034 129.025194 23.7837574 133.37393 27.5637319L137.846036 23.1069191C137.631242 22.9142426 137.418102 22.721017 137.197801 22.5343787 131.759677 17.9425277 124.835073 15.4130298 117.699532 15.4130298M149.350141 34.2064085L149.350141.219025532 147.865314.230004255 147.863111 38.7768511C147.863111 42.6139149 141.924904 45.5161404 141.924904 45.5161404 141.924904 45.5161404 147.869169 47.7794043 147.869169 51.8014596L147.869169 78.0812298 149.439363 78.0812298 149.439363 51.5527915C149.439363 51.5527915 149.335271 47.9270681 145.489921 45.8070766L144.803133 45.5046128 145.448615 45.1220043C149.418434 42.3471319 149.363359 39.0683362 149.363359 39.0683362L149.350141 34.2064085zM156.993476 24.8448511C157.367436 24.4369915 158.563669 23.2359191 158.563669 23.2359191 159.02575 22.7940255 159.497194 22.360366 159.987914 21.9453702 165.565378 17.2354979 172.668425 14.6412255 179.987917 14.6412255L180.115141 14.6412255C187.434083 14.6412255 194.53713 17.2354979 200.114594 21.9459191 205.631476 26.6047404 209.356761 33.0563872 210.603113 40.1124128 210.882344 41.7575745 212.377635 43.9582596 214.653893 45.1225532L215.299925 45.5051617 214.613137 45.8070766C214.577338 45.8235447 210.668652 48.4304426 210.665348 51.9557106L210.663695 78.2019957 212.233889 78.0955021 212.233889 52.3339277C212.235541 47.9095021 218.178705 45.5161404 218.178705 45.5161404 218.178705 45.5161404 212.947664 43.532834 212.126492 39.1572638 209.318759 24.1943617 195.912908 12.9960638 180.069429 13.0586426L180.03363 13.0586426C171.845051 13.0262553 164.320128 16.0086255 158.563669 20.958383L158.563669.178404255 156.993476.178404255 156.993476 24.8448511zM158.563669 35.0583574C159.83866 32.4585957 161.592254 30.0893872 163.765521 28.0742426 168.195769 23.9676511 173.968199 21.706034 180.019861 21.706034L180.114039 21.706034C186.16515 21.706034 191.937581 23.9676511 196.367829 28.0747915 200.73419 32.1220979 203.410293 37.6015787 203.903767 43.5037404 203.903767 43.5037404 204.031541 44.5011574 203.233502 45.4996723 203.565605 45.8476979 203.985829 46.4367064 203.921942 47.2804213L203.912028 47.4088723 203.912028 78.0955021 209.900353 78.0955021 209.908615 51.4347702C209.885483 48.7378468 212.487235 46.1375362 213.635553 45.493634 212.480075 44.7245745 210.369594 42.8477617 209.966994 40.9374638L209.913021 40.6531149 209.840872 40.2463532C208.625363 33.3670851 204.993705 27.0768255 199.614511 22.5343787 194.176387 17.9425277 187.251233 15.4130298 180.115692 15.4130298L180.017658 15.4124809C172.882117 15.4124809 165.956962 17.9419787 160.519389 22.5343787 159.83866 23.1091149 159.18657 23.7118468 158.563669 24.3403787 158.563669 24.3403787 157.542024 25.4283702 156.993476 26.0558043 156.717549 26.3796766 156.449883 26.7095872 156.188276 27.0444383L156.188276.189382979 150.232445.230004255 150.218126 39.3087702C150.218126 39.3087702 150.479733 42.3965362 146.497797 45.493634 147.646115 46.1375362 150.225286 48.1696979 150.225286 51.5418128L150.232996 78.0779362 156.221872 78.0779362 156.211408 47.2798723C156.19819 46.4542723 156.567744 45.8471489 156.899848 45.4991234 156.088039 44.4435191 156.230133 43.5037404 156.230133 43.5037404 156.3524 42.0391787 156.609602 40.6015149 156.993476 39.2044723 157.513936 37.3973745 158.563669 35.0583574 158.563669 35.0583574zM157.715511 45.1516468L158.16162 45.4991234C158.16162 45.4991234 157.804733 45.7121106 157.710004 45.7845702 156.976402 46.3510723 156.993476 47.3468426 156.993476 47.3468426L156.993476 78.0779362 158.480506 78.0779362 158.480506 47.1064085 160.80578 45.5073574 158.485462 43.842434C158.489318 43.7919319 158.563669 43.0717277 158.563669 43.0717277 159.779729 32.3383787 168.934878 24.0165064 180.019861 24.0604213L180.113489 24.0604213C191.462833 24.0154085 200.794222 32.7391021 201.648438 43.842434L199.32757 45.5073574 201.652844 47.1069574 201.652844 77.9879106 203.139874 78.0955021 203.139874 47.3473915 203.149788 47.222783C203.216429 46.3472298 202.47787 45.8257404 202.423346 45.7851191 202.326964 45.7137574 201.971729 45.4996723 201.971729 45.4996723L202.417838 45.1516468C203.103524 44.6674851 203.155846 43.8567064 203.143179 43.7068468L203.132164 43.567966C202.655212 37.8579319 200.065577 32.5563064 195.840759 28.6396468 191.554258 24.6664468 185.969083 22.4778383 180.11459 22.4778383L180.01931 22.4772894C174.164267 22.4772894 168.579643 24.6658979 164.29259 28.6396468 161.758581 30.9885447 159.817731 33.8391702 158.563669 36.9746936 157.4506 39.7797574 157.117945 42.3010213 157.02597 43.2589149 157.000635 43.5224043 157.052406 44.6103957 157.715511 45.1516468zM284.116923 47.2194894L245.559885 47.2194894 243.821712 45.4996723 245.996632 43.326434 284.155476 43.3236894 284.146664 43.2281745C283.594259 37.4319574 280.933577 32.0589702 276.635509 28.0747915 272.205261 23.9676511 266.432831 21.706034 260.38172 21.706034L260.287541 21.706034C254.23588 21.706034 248.463449 23.9676511 244.033201 28.0742426 239.66684 32.1220979 236.990737 37.6015787 236.497263 43.5037404 236.497263 43.5037404 236.370039 44.5006085 237.168079 45.4991234 236.835976 45.8471489 236.415201 46.4367064 236.479639 47.2798723L236.489553 47.4088723C236.959895 53.3159745 239.616171 58.8080809 243.970415 62.8735021 248.382489 66.993817 254.144455 69.2757447 260.195566 69.2998979L260.473695 69.3004468C265.73613 69.2790383 270.779365 67.5487915 274.90725 64.388017L279.39753 68.8634936C274.067353 73.1786809 267.393342 75.5654553 260.499581 75.5929021L260.16913 75.5929021C252.987876 75.5643574 246.040692 72.9810638 240.606974 68.3184 235.232186 63.7067872 231.643487 57.3484596 230.500677 50.4088085L230.492966 50.3659915C230.023726 47.7294511 227.913795 46.1375362 226.765477 45.493634 227.920955 44.7240255 230.031987 42.8477617 230.434036 40.9374638L230.488009 40.652566 230.560709 40.2463532C231.776218 33.3670851 235.407876 27.0768255 240.78707 22.5343787 246.224643 17.9419787 253.149797 15.4124809 260.285338 15.4124809L260.383923 15.4130298C267.519464 15.4130298 274.444068 17.9425277 279.882192 22.5343787 285.261385 27.0768255 288.893043 33.3670851 290.108553 40.2463532L290.270474 41.0950085C290.335462 41.0543872 286.592002 43.0750213 284.116923 47.2194894"></path>
    <path fill="#00000E" d="M292.258137,38.7532468 C288.745442,23.5740638 276.056118,12.994966 260.337109,13.0586426 L260.30131,13.0586426 C244.457831,12.9955149 231.079517,24.1993021 228.244246,39.1572638 C227.480904,43.1837106 222.192034,45.5161404 222.192034,45.5161404 C222.192034,45.5161404 227.444555,47.5268936 228.13685,51.2827149 C230.919799,66.3812043 244.088276,77.8841617 260.041906,77.9472894 L260.596513,77.9478383 C268.39516,77.9170979 275.524643,75.147166 281.10431,70.5646468 L279.94718,69.4113319 C274.469953,73.8697915 267.599874,76.3372596 260.502335,76.3647064 L260.136085,76.3641574 C252.770329,76.3356128 245.644701,73.6858979 240.071643,68.903566 C234.558617,64.173383 230.877942,57.6520213 229.707043,50.5389064 L229.705391,50.5284766 C229.007038,47.4769404 225.7934,45.8229957 225.757602,45.8070766 L225.070814,45.5046128 L225.716846,45.1220043 C225.754848,45.0994979 229.187684,42.8867362 229.635445,40.7618043 L229.701536,40.4845915 L229.767626,40.1124128 C231.013977,33.0563872 234.739263,26.6047404 240.256145,21.9453702 C245.833609,17.2354979 252.936656,14.6412255 260.255598,14.6412255 L260.382821,14.6412255 C267.702314,14.6412255 274.80481,17.2354979 280.382825,21.9459191 C285.88759,26.5948596 289.621688,33.0624255 290.876301,40.101434 L291.087239,41.3425787 C291.087239,41.3425787 287.083273,43.5641234 284.514566,47.8946809 L246.249427,47.8946809 L247.29916,48.9530298 L285.504267,48.9530298 C285.504267,48.9530298 287.539846,44.9156043 292.03288,42.1335957 L292.798976,41.6949957 L292.258137,38.7532468"></path>
    <path fill="#00000E" d="M237.251793 47.222783L237.261156 47.3468426C237.716077 53.0629149 240.286987 58.377166 244.499688 62.3102936 248.769117 66.297217 254.343827 68.5050383 260.197769 68.5286426L260.471492 68.5286426C265.527945 68.5088809 270.374562 66.8549362 274.353194 63.8357872L273.254994 62.7412085C269.702094 65.3640255 265.312602 66.9268468 260.552453 66.9455106L260.116808 66.9455106C248.805466 66.9004979 239.568256 58.1625319 238.748186 47.1064085L241.073461 45.5073574 238.753143 43.842434C239.606808 32.7391021 248.938197 24.0154085 260.288092 24.0604213L260.381169 24.0604213C270.880703 24.0192511 279.652528 31.4814894 281.584015 41.3903362 281.588421 41.4139404 281.606596 41.5885021 281.606596 41.5885021L247.750776 41.5906979 246.703246 42.6270894 283.293549 42.6408128 283.216994 42.0139277C282.436028 36.9005872 279.94718 32.1978511 276.10844 28.6396468 271.821938 24.6664468 266.236763 22.4778383 260.382271 22.4778383L260.286991 22.4772894C254.431947 22.4772894 248.847323 24.6658979 244.560821 28.6396468 240.336004 32.5557574 237.746368 37.8579319 237.268867 43.567966L237.257852 43.7062979C237.245184 43.8567064 237.298056 44.6674851 237.983192 45.1516468L238.429852 45.4991234C238.429852 45.4991234 238.074066 45.7137574 237.977684 45.7845702 237.92316 45.8251915 237.185152 46.3466809 237.251793 47.222783M100.127242 128.873745L110.130549 124.963123 100.127242 120.920209C100.127242 120.920209 98.8561071 123.187315 95.9205996 125.035583 95.9205996 125.035583 98.006297 126.113694 100.127242 128.873745"></path>
    <g transform="translate(110.15 120.766)">
      <mask id="ochelogo-e" fill="#fff">
        <use xlink:href="#ochelogo-d"></use>
      </mask>
      <path fill="#00000E" d="M25.4810865 2.34121277L.223054511 4.19716596 25.5196391 6.13106809C25.5196391 6.13106809 28.6049511 5.12651489 36.0863647 4.19716596 36.0863647 4.19716596 30.8663383 3.92324681 25.4810865 2.34121277M82.5213571.280506383L72.5180508 4.19112766 82.5213571 8.23349362C82.5213571 8.23349362 83.7924925 5.96638723 86.728 4.11866809 86.728 4.11866809 84.6423026 3.04055745 82.5213571.280506383" mask="url(#ochelogo-e)"></path>
    </g>
    <path fill="#00000E" d="M157.167513,126.813038 L182.425545,124.957085 L157.128961,123.022634 C157.128961,123.022634 154.043648,124.028285 146.562786,124.957085 C146.562786,124.957085 151.782261,125.231004 157.167513,126.813038"></path>
    <g fill="#00000E" transform="translate(45 92)">
      <path d="M13.2335282 7.72029362C13.2335282 4.96188936 11.058609 2.7238766 8.37809962 2.7238766 5.69814098 2.7238766 3.5232218 4.96188936 3.5232218 7.72029362 3.5232218 10.4792468 5.69814098 12.7172596 8.37809962 12.7172596 11.058609 12.7172596 13.2335282 10.4792468 13.2335282 7.72029362zM14.9871222 9.32812766C14.2788553 12.4115021 11.5884323 14.7159362 8.37809962 14.7159362 5.15399812 14.7159362 2.4531109 12.3917404 1.75971429 9.28750638L.424691729 7.95688511 1.65782519 6.72781702C2.1292688 3.33978298 4.9584812.724651064 8.37809962.724651064 11.7861523.724651064 14.6076541 3.32166809 15.0934173 6.69158723L16.3623496 7.95688511 14.9871222 9.32812766zM29.506594 10.7235234L29.506594 10.7614C29.506594 13.0790085 27.5629906 14.6972723 24.7805921 14.6972723 22.6530376 14.6972723 20.8895301 14.0094553 19.2290132 12.5322681L19.0858177 12.4049149 20.270485 11.0073234 20.4219417 11.1434596C21.8555489 12.4356553 23.1349455 12.962634 24.8373195 12.962634 26.4614868 12.962634 27.595485 12.1194681 27.595485 10.9123574L27.595485 10.8744809C27.595485 9.98026383 27.2413515 9.37753191 25.5384267 8.8642766L24.0018289 9.62235745 23.3585508 8.32577021C21.1252519 7.71590213 19.6938477 6.74812766 19.6938477 4.54799149L19.6938477 4.51011489C19.6938477 2.30558723 21.6099135.705987234 24.2496673.705987234 26.1431523.705987234 27.5745564 1.20442128 29.0351504 2.37310638L29.1844041 2.49277447 28.0735376 3.96172766 27.9143703 3.83162979C26.7467763 2.88306809 25.5703703 2.44062553 24.2116654 2.44062553 22.6657049 2.44062553 21.5862312 3.23713191 21.5862312 4.37782128L21.5862312 4.41569787C21.5862312 5.34559574 21.9811203 5.96754043 23.9159117 6.51702553L25.331344 5.81822979 25.9267068 7.01600851C28.4216128 7.7230383 29.506594 8.85933617 29.506594 10.7235234"></path>
      <polyline points="42.073 12.533 42.073 14.466 35.14 14.466 35.14 9.17 33.842 7.876 35.14 6.582 35.14 .932 37.08 .932 37.08 12.533 42.073 12.533"></polyline>
      <path d="M58.1236617 7.72029362C58.1236617 4.96188936 55.9481917 2.7238766 53.2682331 2.7238766 50.5882744 2.7238766 48.4133553 4.96188936 48.4133553 7.72029362 48.4133553 10.4792468 50.5882744 12.7172596 53.2682331 12.7172596 55.9481917 12.7172596 58.1236617 10.4792468 58.1236617 7.72029362zM59.8772556 9.32812766C59.1689887 12.4115021 56.4785658 14.7159362 53.2682331 14.7159362 50.0441316 14.7159362 47.3432444 12.3917404 46.6498477 9.28750638L45.3148252 7.95688511 46.5479586 6.72781702C47.0188515 3.33978298 49.8486147.724651064 53.2682331.724651064 56.6762857.724651064 59.4977876 3.32166809 59.9835508 6.69158723L61.2524831 7.95688511 59.8772556 9.32812766zM84.9237989 7.70876596C84.9237989 5.03874043 82.7488797 2.87099149 80.0700226 2.87099149L77.1576466 2.87099149 77.1576466 12.5465404 80.0700226 12.5465404C82.7488797 12.5465404 84.9237989 10.3793404 84.9237989 7.70876596zM86.7021767 9.16674043C86.0308102 12.2023574 83.3145019 14.4815404 80.0700226 14.4815404L75.2156955 14.4815404 75.2156955 9.16234894 74.0662763 8.01617021 75.2156955 6.86999149 75.2156955.935991489 80.0700226.935991489C83.5728045.935991489 86.4637011 3.59174468 86.8255451 6.98911064L87.8560019 8.01617021 86.7021767 9.16674043zM97.3542688 9.29409362L95.4519718 11.1906681 97.3542688 13.0872426 99.2576673 11.1906681 97.3542688 9.29409362zM97.2777143 4.60068936L91.8880564 14.4480553 89.6619173 14.4480553 97.2777143.552834043 104.912237 14.4480553 102.686098 14.4480553 97.2777143 4.60068936zM118.716282 14.4667191L116.463707 14.484834 112.526382 8.70563404 113.729774 8.6655617C115.340173 8.6655617 116.640498 7.37007234 116.640498 5.76498298 116.640498 4.15934468 115.340173 2.86440426 113.729774 2.86440426L110.819602 2.86440426 110.819602 14.4667191 108.879303 14.4667191 108.879303 9.18430638 107.618081 7.92724255 108.879303 6.67072766 108.879303.930502128 113.729774.930502128C116.40753.930502128 118.580246 3.09605532 118.580246 5.76498298 118.580246 7.6791234 117.474336 9.3226383 115.844662 10.1158511L118.716282 14.4667191"></path>
      <polyline points="133.187 .939 133.187 2.87 128.342 2.87 128.342 14.46 126.405 14.46 126.405 8.881 125.331 7.811 126.405 6.742 126.405 2.87 121.56 2.87 121.56 .939 133.187 .939"></polyline>
      <path d="M157.292874,10.7394426 L158.875735,11.9575319 C157.593585,13.6350809 155.570122,14.7329532 153.286705,14.7329532 C149.957961,14.7329532 147.165648,12.4082085 146.452976,9.3028766 L145.157056,8.01122979 L146.336767,6.83595745 C146.785079,3.41059574 149.729398,0.756489362 153.286705,0.756489362 C155.570122,0.756489362 157.593585,1.85491064 158.875735,3.53191064 L157.292874,4.74945106 C156.372017,3.53191064 154.929047,2.75297021 153.286705,2.75297021 C150.52193,2.75297021 148.278718,4.98988511 148.278718,7.74444681 C148.278718,10.5001064 150.52193,12.7364723 153.286705,12.7364723 C154.929047,12.7364723 156.372017,11.9575319 157.292874,10.7394426"></path>
      <polyline points="170.64 12.533 170.64 14.466 163.707 14.466 163.707 9.17 162.409 7.876 163.707 6.582 163.707 .932 165.647 .932 165.647 12.533 170.64 12.533"></polyline>
      <path d="M186.872656 9.21559574C186.62647 12.2215702 184.111186 14.5754085 181.03028 14.5754085 177.959288 14.5754085 175.450062 12.2363915 175.190107 9.24414043L173.882071 7.93986809 175.166425 6.6592 175.166425.93873617 177.121043.93873617 177.121043 8.73088511C177.121043 10.8931447 178.860868 12.627234 181.03028 12.627234 183.180415 12.627234 184.939517 10.8931447 184.939517 8.73088511L184.939517.93873617 186.893585.93873617 186.893585 6.68554894 188.152603 7.93986809 186.872656 9.21559574M201.436188 10.752617C201.436188 9.6898766 200.564348 8.97625957 199.497541 8.97625957L195.814113 8.97625957 195.814113 7.04455319 198.528769 7.04455319C199.595024 7.04455319 200.466865 6.01914043 200.466865 4.9564 200.466865 3.89420851 199.595024 2.86824681 198.528769 2.86824681L193.682703 2.86824681 193.682703 12.5284255 199.497541 12.5284255C200.564348 12.5284255 201.436188 11.8148085 201.436188 10.752617zM201.494568 7.60501702C202.618652 8.28130638 203.374284 9.34185106 203.374284 10.752617 203.374284 12.8973106 201.630053 14.4606809 199.497541 14.4606809L191.744056 14.4606809 191.744056 9.18705106 190.509271 7.95633617 191.744056 6.72507234 191.744056.936540426 198.528769.936540426C200.66128.936540426 202.405511 2.83091915 202.405511 4.9564 202.405511 5.90331489 202.056885 6.92872766 201.494568 7.60446809L201.494568 7.60501702z"></path>
    </g>
  </g>
</svg>
