<?xml version="1.0" encoding="utf-8"?>
<!-- Generator: Adobe Illustrator 15.0.2, SVG Export Plug-In  -->
<!DOCTYPE svg PUBLIC "-//W3C//DTD SVG 1.1//EN" "http://www.w3.org/Graphics/SVG/1.1/DTD/svg11.dtd" [
	<!ENTITY ns_flows "http://ns.adobe.com/Flows/1.0/">
]>
<svg version="1.1"
	 xmlns="http://www.w3.org/2000/svg" xmlns:xlink="http://www.w3.org/1999/xlink" xmlns:a="http://ns.adobe.com/AdobeSVGViewerExtensions/3.0/"
	 x="0px" y="0px" width="380px" height="380px" viewBox="1346 484 380 380"
	 overflow="visible" enable-background="new 1346 484 380 380" xml:space="preserve">
<defs>
</defs>
<rect fill="#FFFFFF" width="2628" height="904"/>
<rect x="1346" y="484" fill="#FFFFFF" width="380" height="380"/>
<path id="bg_1_" fill="#563D7C" d="M1726,800.667c0,34.833-28.5,63.333-63.334,63.333h-253.333C1374.5,864,1346,835.5,1346,800.667
	V547.333c0-34.833,28.5-63.333,63.333-63.333h253.333c34.834,0,63.334,28.5,63.334,63.333V800.667z"/>
<path fill="#FFFFFF" d="M1448.258,566.582h107.729c19.869,0,35.828,4.532,47.812,13.66s18.006,22.85,18.006,41.291
	c0,11.176-2.731,20.738-8.196,28.687c-5.464,7.948-13.287,14.157-23.47,18.503v0.621c13.66,2.918,24.028,9.376,31.046,19.373
	c7.016,10.059,10.555,22.601,10.555,37.752c0,8.692-1.553,16.826-4.656,24.34c-3.104,7.575-7.948,14.094-14.592,19.559
	c-6.645,5.464-15.088,9.81-25.458,13.039c-10.368,3.229-22.663,4.843-36.944,4.843h-101.83V566.582L1448.258,566.582z
	 M1487.064,659.408h63.334c9.314,0,17.075-2.607,23.285-7.947c6.209-5.34,9.312-12.915,9.312-22.85
	c0-11.177-2.794-19.062-8.382-23.595c-5.588-4.532-13.66-6.83-24.216-6.83h-63.334V659.408L1487.064,659.408z M1487.064,756.582
	h68.611c11.798,0,20.988-3.042,27.445-9.19c6.52-6.084,9.811-14.778,9.811-25.954c0-10.99-3.229-19.373-9.811-25.333
	c-6.582-5.961-15.647-8.817-27.445-8.817h-68.611V756.582z"/>
</svg>
