<?xml version="1.0" encoding="utf-8"?>
<!-- Generator: Adobe Illustrator 15.0.2, SVG Export Plug-In  -->
<!DOCTYPE svg PUBLIC "-//W3C//DTD SVG 1.0//EN" "http://www.w3.org/TR/2001/REC-SVG-20010904/DTD/svg10.dtd" [
	<!ENTITY ns_flows "http://ns.adobe.com/Flows/1.0/">
]>
<svg version="1.0"
	 xmlns="http://www.w3.org/2000/svg" xmlns:xlink="http://www.w3.org/1999/xlink" xmlns:a="http://ns.adobe.com/AdobeSVGViewerExtensions/3.0/"
	 x="0px" y="0px" width="580px" height="580px" viewBox="0 0 580 580" overflow="visible" enable-background="new 0 0 580 580"
	 xml:space="preserve">
<defs>
</defs>
<rect fill="#3F3F3F" width="580" height="580"/>
<path fill="#FFFFFF" d="M509,269.7L310.2,71c-11.4-11.4-30-11.4-41.5,0l-41.3,41.3l52.3,52.4c12.2-4.1,26.1-1.4,35.8,8.3
	c9.8,9.8,12.5,23.8,8.3,36l50.5,50.5c12.2-4.2,26.3-1.5,36,8.3c13.6,13.6,13.6,35.7,0,49.3c-13.6,13.6-35.7,13.6-49.3,0
	c-10.2-10.3-12.8-25.3-7.6-37.9L306.4,232v123.8c3.3,1.6,6.5,3.8,9.2,6.6c13.6,13.6,13.6,35.7,0,49.3c-13.6,13.6-35.7,13.6-49.3,0
	c-13.6-13.6-13.6-35.7,0-49.3c3.4-3.4,7.3-5.9,11.4-7.6v-125c-4.2-1.7-8.1-4.2-11.4-7.6c-10.3-10.3-12.8-25.5-7.5-38.1l-51.6-51.6
	L71,268.8c-11.4,11.5-11.4,30,0,41.5L269.7,509c11.4,11.4,30,11.4,41.5,0L509,311.2C520.4,299.7,520.4,281.1,509,269.7z"/>
</svg>
