<?xml version="1.0" encoding="utf-8"?>
<!-- Generator: Adobe Illustrator 15.0.2, SVG Export Plug-In  -->
<!DOCTYPE svg PUBLIC "-//W3C//DTD SVG 1.1//EN" "http://www.w3.org/Graphics/SVG/1.1/DTD/svg11.dtd" [
	<!ENTITY ns_flows "http://ns.adobe.com/Flows/1.0/">
]>
<svg version="1.1"
	 xmlns="http://www.w3.org/2000/svg" xmlns:xlink="http://www.w3.org/1999/xlink" xmlns:a="http://ns.adobe.com/AdobeSVGViewerExtensions/3.0/"
	 x="0px" y="0px" width="380px" height="380px" viewBox="477 50 380 380"
	 overflow="visible" enable-background="new 477 50 380 380" xml:space="preserve">
<defs>
</defs>
<rect fill="#FFFFFF" width="2628" height="904"/>
<rect x="477" y="50" fill="#D30707" width="380" height="380"/>
<path fill="#FFFFFF" d="M810.464,226.694L680.254,96.489c-7.496-7.5-19.655-7.5-27.161,0l-27.036,27.041l34.296,34.299
	c7.972-2.693,17.112-0.886,23.463,5.467c6.39,6.393,8.183,15.612,5.423,23.611l33.055,33.055c8.002-2.758,17.225-0.976,23.614,5.422
	c8.927,8.924,8.927,23.388,0,32.318c-8.932,8.931-23.394,8.931-32.329,0c-6.713-6.718-8.374-16.584-4.969-24.854l-30.834-30.83
	v81.127c2.176,1.078,4.228,2.513,6.04,4.321c8.927,8.924,8.927,23.387,0,32.325c-8.923,8.921-23.396,8.921-32.315,0
	c-8.923-8.938-8.923-23.401,0-32.325c2.208-2.204,4.764-3.871,7.487-4.986v-81.879c-2.724-1.116-5.274-2.768-7.487-4.988
	c-6.761-6.757-8.386-16.681-4.918-24.983l-33.811-33.817l-89.285,89.276c-7.5,7.509-7.5,19.668,0,27.17L653.7,383.463
	c7.498,7.498,19.654,7.498,27.163,0l129.601-129.602C817.965,246.36,817.965,234.192,810.464,226.694z"/>
</svg>
