<?xml version="1.0" encoding="utf-8"?>
<!-- Generator: Adobe Illustrator 15.0.2, SVG Export Plug-In  -->
<!DOCTYPE svg PUBLIC "-//W3C//DTD SVG 1.1//EN" "http://www.w3.org/Graphics/SVG/1.1/DTD/svg11.dtd" [
	<!ENTITY ns_flows "http://ns.adobe.com/Flows/1.0/">
]>
<svg version="1.1"
	 xmlns="http://www.w3.org/2000/svg" xmlns:xlink="http://www.w3.org/1999/xlink" xmlns:a="http://ns.adobe.com/AdobeSVGViewerExtensions/3.0/"
	 x="0px" y="0px" width="814px" height="379px" viewBox="0 0 814 379" overflow="visible" enable-background="new 0 0 814 379"
	 xml:space="preserve">
<defs>
</defs>
<rect fill="#F2F2F2" width="814" height="379"/>
<path fill="#315425" d="M176.124,199.037c0-19.071-15.462-34.531-34.528-34.531c-19.068,0-34.53,15.46-34.53,34.531
	c0,19.068,15.462,34.526,34.53,34.526C160.662,233.563,176.124,218.105,176.124,199.037"/>
<path fill="#76B72A" d="M141.595,294.794c48.201,0,88.141-35.342,95.337-81.525h-30.997l-28.061,48.605h-72.56l-36.281-62.837
	l28.209-48.857L81.46,122.846c-22.154,17.684-36.368,44.9-36.368,75.45C45.092,251.59,88.301,294.794,141.595,294.794"/>
<path fill="#315425" d="M423.588,153.692c-0.033,0-0.06-0.009-0.091-0.009c-23.631,0-42.788,19.156-42.788,42.79
	c0,23.631,0.058,42.436,0.058,42.436h22.24c0-6.972-0.046-31.095-0.046-42.436c0-11.345,9.194-20.541,20.536-20.541
	c0.031,0,0.058,0.011,0.091,0.011V153.692z"/>
<path fill="#315425" d="M673.369,238.9c-0.026,0-0.06,0.008-0.084,0.008c-23.634,0-42.792-19.155-42.792-42.788
	c0-23.631,0.055-82.741,0.055-82.741h22.243c0,6.969-0.049,71.398-0.049,82.741c0,11.343,9.197,20.538,20.543,20.538
	c0.024,0,0.058-0.008,0.084-0.008V238.9z"/>
<path fill="#315425" d="M325.798,217.011c-11.345,0-20.54-9.197-20.54-20.539c0-11.345,9.194-20.538,20.54-20.538
	c11.343,0,20.538,9.193,20.538,20.538C346.336,207.813,337.142,217.011,325.798,217.011 M346.229,233.845c0,1.071,0,2.188,0,3.105
	c0,11.34-9.194,20.538-20.538,20.538c-0.03,0-0.056-0.007-0.087-0.007v22.247c0.031,0,0.058,0.011,0.087,0.011
	c23.633,0,42.785-19.158,42.785-42.789c0-17.605-0.028-32.507-0.044-38.976c0.018-0.512,0.151-0.988,0.151-1.502
	c0-0.546-0.138-1.049-0.16-1.584c0-0.115,0-0.377,0-0.377h-0.037c-1.045-22.703-19.628-40.829-42.588-40.829
	c-23.633,0-42.792,19.156-42.792,42.79c0,23.631,19.158,42.788,42.792,42.788C333.24,239.26,340.133,237.188,346.229,233.845"/>
<path fill="#315425" d="M450.451,196.472c0-11.345,9.194-20.538,20.534-20.538c11.347,0,20.541,9.193,20.541,20.538
	c0,11.341-9.194,20.539-20.541,20.539C459.646,217.011,450.451,207.813,450.451,196.472 M428.197,196.472
	c0,23.631,19.158,42.788,42.788,42.788c7.44,0,14.33-2.069,20.424-5.411c0.007,3.318,0.01,5.554,0.01,5.554h22.248l-0.05-41.382
	c0.02-0.526,0.156-1.02,0.156-1.55c0-0.546-0.14-1.049-0.158-1.592v-0.369l-0.038,0.016c-1.035-22.708-19.625-40.845-42.592-40.845
	C447.355,153.683,428.197,172.839,428.197,196.472"/>
<path fill="#315425" d="M548.077,196.472c0-11.345,9.195-20.538,20.538-20.538c10.984,0,19.877,8.64,20.433,19.483
	c0,0.594,0,0.927,0,0.927h0.097c0,0.045,0.01,0.085,0.01,0.127c0,11.341-9.194,20.539-20.539,20.539
	C557.272,217.011,548.077,207.813,548.077,196.472 M525.827,196.472c0,23.631,19.155,42.788,42.788,42.788
	c23.634,0,42.787-19.157,42.787-42.788c0-0.36-0.097-0.694-0.104-1.055l-0.057-82.039h-22.238c0,3.58,0.01,25.353,0.023,45.705
	c-6.092-3.334-12.979-5.401-20.412-5.401C544.982,153.683,525.827,172.839,525.827,196.472"/>
<path fill="#315425" d="M706.809,188.266c0-2.095,6.256-13.712,19.118-13.712c9.584,0,17.568,8.09,19.919,13.712H706.809z
	 M768.177,203.518l0.241-5.754c0-28.342-22.572-44.162-42.303-44.162c-23.631,0-43.342,17.185-43.342,42.813
	c0,25.625,20.277,42.989,44.812,42.989c11.255,0,21.812-5.122,29.791-12.968c-7.99-5.787-11.313-8.111-17.581-12.152
	c-3.559,2.4-8.455,4.479-13.439,4.208c-3.313-0.18-16.61-1.616-20.014-14.95L768.177,203.518z"/>
<path fill="#315425" d="M236.875,182.995c-7.333-46.022-47.192-81.2-95.28-81.2c-11.898,0-23.284,2.166-33.807,6.103l16.339,28.299
	h53.747l27.017,46.797H236.875z"/>
</svg>
