<?xml version="1.0" encoding="utf-8"?>
<!-- Generator: Adobe Illustrator 15.0.2, SVG Export Plug-In  -->
<!DOCTYPE svg PUBLIC "-//W3C//DTD SVG 1.1//EN" "http://www.w3.org/Graphics/SVG/1.1/DTD/svg11.dtd" [
	<!ENTITY ns_flows "http://ns.adobe.com/Flows/1.0/">
]>
<svg version="1.1"
	 xmlns="http://www.w3.org/2000/svg" xmlns:xlink="http://www.w3.org/1999/xlink" xmlns:a="http://ns.adobe.com/AdobeSVGViewerExtensions/3.0/"
	 x="0px" y="0px" width="814px" height="379px" viewBox="0 0 814 379" overflow="visible" enable-background="new 0 0 814 379"
	 xml:space="preserve">
<defs>
</defs>
<rect fill="#FFFFFF" width="814" height="379"/>
<path fill="#F8971D" d="M219.598,180.348c17.415,20.003-4.561,38.062-4.561,38.062s44.199-22.83,23.897-51.385
	c-18.961-26.672-33.516-39.9,45.214-85.558C284.149,81.467,160.587,112.321,219.598,180.348"/>
<path fill="#F8971D" d="M238.929,7.757c0,0,37.496,37.499-35.568,95.193c-58.599,46.271-13.363,72.671-0.029,102.807
	c-34.204-30.843-59.301-58.022-42.464-83.331C185.572,85.327,254.066,67.343,238.929,7.757"/>
<path fill="#58839F" d="M424.382,311.611c0,25.312-8.542,44.335-25.604,57.076l-12.355-10.476
	c5.414-6.386,9.084-13.988,10.936-22.846c1.248-6.047,1.862-14.42,1.862-25.138V170.713h25.162V311.611z"/>
<path fill="#58839F" d="M537.339,327.927H518.7l-1.862-12.577c-11.48,9.938-23.442,14.897-35.865,14.897
	c-23.27,0-34.917-10.709-34.917-32.135c0-12.264,4.726-21.813,14.2-28.652c10.243-7.303,25.23-10.94,44.947-10.94h8.383v-10.487
	c0-13.821-8.007-20.724-24-20.724c-10.407,0-21.728,2.247-33.995,6.747l-3.488-14.669c14.433-6.375,29.121-9.562,44.007-9.562
	c27.489,0,41.229,11.734,41.229,35.179V327.927z M513.587,301.143v-27.486h-10.023c-22.507,0-33.756,6.979-33.756,20.957
	c0,12.108,5.962,18.173,17.927,18.173C495.96,312.787,504.574,308.904,513.587,301.143"/>
<path fill="#58839F" d="M653.804,211.942c-7.602,42.842-19.574,81.517-35.878,115.985h-29.579l-35.645-115.985h25.868l22.115,71.25
	l4.884,21.44c11.504-31.672,19.18-62.565,23.071-92.689H653.804z"/>
<path fill="#58839F" d="M752.074,327.927H733.44l-1.849-12.577c-11.515,9.938-23.463,14.897-35.876,14.897
	c-23.292,0-34.937-10.709-34.937-32.135c0-12.264,4.725-21.813,14.208-28.652c10.243-7.303,25.228-10.94,44.95-10.94h8.381v-10.487
	c0-13.821-7.99-20.724-23.98-20.724c-10.407,0-21.738,2.247-34.013,6.747l-3.5-14.669c14.45-6.375,29.129-9.562,44.026-9.562
	c27.49,0,41.223,11.734,41.223,35.179V327.927z M728.318,301.143v-27.486h-10.013c-22.525,0-33.772,6.979-33.772,20.957
	c0,12.108,5.981,18.173,17.93,18.173C710.703,312.787,719.312,308.904,728.318,301.143"/>
<path fill="#58839F" d="M155.44,286.892c0,0-13.796,8,9.82,10.722c28.598,3.269,43.239,2.792,74.738-3.167
	c0,0,8.302,5.191,19.859,9.67C189.185,334.43,99.93,302.388,155.44,286.892"/>
<path fill="#58839F" d="M146.814,247.372c0,0-15.482,11.443,8.161,13.88c30.55,3.144,54.688,3.401,96.433-4.625
	c0,0,5.771,5.849,14.851,9.06C180.837,290.675,85.671,267.657,146.814,247.372"/>
<path fill="#58839F" d="M313.054,316.122c0,0,10.205,8.389-11.261,14.916c-40.771,12.327-169.739,16.073-205.546,0.492
	c-12.896-5.615,11.26-13.374,18.852-15.002c7.933-1.714,12.452-1.414,12.452-1.414c-14.322-10.089-92.579,19.815-39.743,28.368
	C231.856,366.846,350.41,332.976,313.054,316.122"/>
<path fill="#58839F" d="M162.068,206.433c0,0-65.605,15.564-23.221,21.232c17.878,2.395,53.55,1.835,86.767-0.938
	c27.167-2.283,54.411-7.16,54.411-7.16s-9.573,4.099-16.5,8.821c-66.619,17.53-195.298,9.38-158.251-8.537
	C136.602,204.713,162.068,206.433,162.068,206.433"/>
<path fill="#58839F" d="M279.752,272.189c67.711-35.179,36.414-69.015,14.547-64.442c-5.35,1.123-7.73,2.084-7.73,2.084
	s1.987-3.112,5.778-4.466c43.24-15.198,76.488,44.812-13.957,68.601C278.391,273.966,279.44,273.039,279.752,272.189"/>
<path fill="#58839F" d="M168.729,367.569c65.003,4.14,164.824-2.325,167.186-33.083c0,0-4.552,11.644-53.713,20.925
	c-55.487,10.437-123.925,9.207-164.497,2.508C117.705,357.919,126.007,364.809,168.729,367.569"/>
</svg>
