<?xml version="1.0" encoding="utf-8"?>
<!-- Generator: Adobe Illustrator 15.0.2, SVG Export Plug-In  -->
<!DOCTYPE svg PUBLIC "-//W3C//DTD SVG 1.1//EN" "http://www.w3.org/Graphics/SVG/1.1/DTD/svg11.dtd" [
	<!ENTITY ns_flows "http://ns.adobe.com/Flows/1.0/">
]>
<svg version="1.1"
	 xmlns="http://www.w3.org/2000/svg" xmlns:xlink="http://www.w3.org/1999/xlink" xmlns:a="http://ns.adobe.com/AdobeSVGViewerExtensions/3.0/"
	 x="0px" y="0px" width="380px" height="380px" viewBox="911 484 380 380"
	 overflow="visible" enable-background="new 911 484 380 380" xml:space="preserve">
<defs>
</defs>
<rect fill="#FFFFFF" width="2628" height="904"/>
<rect x="911" y="484" fill="#FFFFFF" width="380" height="380"/>
<path fill="#F8971D" d="M1112.5,660.476c17.194,19.751-4.503,37.581-4.503,37.581s43.64-22.541,23.594-50.734
	c-18.721-26.334-33.091-39.396,44.643-84.475C1176.233,562.848,1054.236,593.311,1112.5,660.476"/>
<path fill="#F8971D" d="M1131.587,490.071c0,0,37.021,37.024-35.118,93.988c-57.857,45.686-13.194,71.751-0.029,101.505
	c-33.771-30.452-58.549-57.287-41.926-82.276C1078.904,566.659,1146.531,548.903,1131.587,490.071"/>
<path fill="#58839F" d="M1049.154,765.671c0,0-13.62,7.898,9.695,10.586c28.237,3.228,42.692,2.757,73.793-3.127
	c0,0,8.196,5.125,19.607,9.548C1082.473,812.606,994.348,780.971,1049.154,765.671"/>
<path fill="#58839F" d="M1040.639,726.652c0,0-15.287,11.298,8.057,13.704c30.163,3.104,53.997,3.358,95.212-4.566
	c0,0,5.697,5.775,14.662,8.945C1074.23,769.406,980.271,746.68,1040.639,726.652"/>
<path fill="#58839F" d="M1204.774,794.53c0,0,10.074,8.284-11.12,14.727c-40.254,12.172-167.59,15.87-202.945,0.486
	c-12.73-5.544,11.119-13.204,18.613-14.812c7.834-1.692,12.295-1.396,12.295-1.396c-14.139-9.962-91.407,19.564-39.24,28.009
	C1124.604,844.612,1241.656,811.172,1204.774,794.53"/>
<path fill="#58839F" d="M1055.698,686.23c0,0-64.774,15.368-22.927,20.964c17.65,2.365,52.871,1.812,85.668-0.926
	c26.823-2.254,53.723-7.069,53.723-7.069s-9.451,4.046-16.291,8.709c-65.775,17.309-192.824,9.261-156.248-8.429
	C1030.555,684.533,1055.698,686.23,1055.698,686.23"/>
<path fill="#58839F" d="M1171.893,751.154c66.854-34.733,35.953-68.14,14.361-63.626c-5.281,1.11-7.631,2.059-7.631,2.059
	s1.963-3.073,5.705-4.409c42.693-15.006,75.521,44.244-13.78,67.733C1170.548,752.91,1171.584,751.994,1171.893,751.154"/>
<path fill="#58839F" d="M1062.275,845.327c64.18,4.088,162.736-2.296,165.068-32.665c0,0-4.494,11.498-53.033,20.66
	c-54.785,10.305-122.357,9.091-162.414,2.477C1011.896,835.799,1020.096,842.602,1062.275,845.327"/>
</svg>
