<?xml version="1.0" encoding="utf-8"?>
<!-- Generator: Adobe Illustrator 15.0.2, SVG Export Plug-In  -->
<!DOCTYPE svg PUBLIC "-//W3C//DTD SVG 1.1//EN" "http://www.w3.org/Graphics/SVG/1.1/DTD/svg11.dtd" [
	<!ENTITY ns_flows "http://ns.adobe.com/Flows/1.0/">
]>
<svg version="1.1"
	 xmlns="http://www.w3.org/2000/svg" xmlns:xlink="http://www.w3.org/1999/xlink" xmlns:a="http://ns.adobe.com/AdobeSVGViewerExtensions/3.0/"
	 x="0px" y="0px" width="380px" height="380px" viewBox="2213 50 380 380"
	 overflow="visible" enable-background="new 2213 50 380 380" xml:space="preserve">
<defs>
</defs>
<rect fill="#FFFFFF" width="2628" height="904"/>
<rect x="2213" y="50" fill="#F0DB4F" width="380" height="380"/>
<path fill="#323330" d="M2561.899,339.371c-2.78-17.338-14.088-31.896-47.571-45.478c-11.632-5.347-24.6-9.176-28.464-17.989
	c-1.373-5.129-1.555-8.017-0.688-11.126c2.492-10.078,14.522-13.219,24.057-10.331c6.142,2.06,11.957,6.791,15.462,14.342
	c16.397-10.621,16.362-10.547,27.813-17.843c-4.191-6.503-6.431-9.501-9.178-12.282c-9.859-11.019-23.296-16.688-44.789-16.255
	c-3.721,0.47-7.477,0.977-11.199,1.445c-10.727,2.71-20.949,8.346-26.945,15.894c-17.988,20.409-12.859,56.132,9.031,70.835
	c21.562,16.182,53.242,19.868,57.289,35.002c3.936,18.529-13.619,24.526-31.066,22.394c-12.858-2.67-20.01-9.211-27.74-21.095
	c-14.232,8.236-14.232,8.236-28.861,16.654c3.467,7.586,7.116,11.016,12.932,17.59c27.523,27.923,96.408,26.551,108.763-15.713
	C2561.248,363.971,2564.571,354.289,2561.899,339.371z M2419.58,224.649h-35.543c0,30.702-0.146,61.189-0.146,91.893
	c0,19.542,1.011,37.458-2.167,42.949c-5.202,10.8-18.676,9.464-24.815,7.368c-6.249-3.069-9.428-7.44-13.111-13.616
	c-1.013-1.771-1.771-3.144-2.024-3.25c-9.645,5.886-19.253,11.812-28.896,17.699c4.805,9.86,11.883,18.421,20.95,23.986
	c13.546,8.125,31.751,10.619,50.787,6.248c12.391-3.613,23.082-11.089,28.682-22.468c8.09-14.918,6.355-32.979,6.284-52.955
	C2419.761,289.92,2419.58,257.338,2419.58,224.649z"/>
</svg>
