<?xml version="1.0" encoding="utf-8"?>
<!-- Generator: Adobe Illustrator 15.0.2, SVG Export Plug-In  -->
<!DOCTYPE svg PUBLIC "-//W3C//DTD SVG 1.1//EN" "http://www.w3.org/Graphics/SVG/1.1/DTD/svg11.dtd" [
	<!ENTITY ns_flows "http://ns.adobe.com/Flows/1.0/">
]>
<svg version="1.1"
	 xmlns="http://www.w3.org/2000/svg" xmlns:xlink="http://www.w3.org/1999/xlink" xmlns:a="http://ns.adobe.com/AdobeSVGViewerExtensions/3.0/"
	 x="0px" y="0px" width="814px" height="379px" viewBox="911 50 814 379"
	 overflow="visible" enable-background="new 911 50 814 379" xml:space="preserve">
<defs>
</defs>
<rect fill="#FFFFFF" width="2628" height="904"/>
<rect x="911" y="50" fill="#D3D3D3" width="814" height="379"/>
<path d="M1182.294,205.968c0,2.373-0.153,4.935-0.459,7.689c-0.307,2.754-0.766,5.623-1.379,8.607l-17.311,83.888h-37.31
	l13.368-64.379c0.89-4.436,1.695-8.691,2.416-12.762c0.72-4.07,1.08-7.354,1.08-9.846c0-4.436-1.083-7.689-3.248-9.754
	c-2.166-2.065-6.023-3.099-11.571-3.099c-2.638,0-5.632,0.708-8.982,2.123c-3.35,1.417-7.392,3.54-12.128,6.369l-18.745,91.347
	h-37.31l13.339-64.379c0.753-3.748,1.505-7.804,2.258-12.165s1.129-7.688,1.129-9.984c0-4.666-1.038-8.051-3.113-10.156
	c-2.077-2.103-5.939-3.156-11.588-3.156c-2.927,0-6.125,0.766-9.597,2.295c-3.471,1.531-7.386,3.597-11.74,6.197l-18.745,91.347
	h-36.996l26.59-128.873h37l-2.937,14.23c7.472-5.583,14.214-9.944,20.227-13.082c6.012-3.136,12.518-4.705,19.516-4.705
	c7.54,0,13.892,1.893,19.056,5.68c5.162,3.787,8.762,9.353,10.801,16.697c9.108-7.42,17.266-13.005,24.473-16.754
	c7.207-3.748,14.175-5.623,20.907-5.623c10.061,0,17.742,2.793,23.045,8.377C1179.642,187.684,1182.294,195.64,1182.294,205.968z"/>
<path fill="#FF6804" d="M1260.083,294.137c-2.047,1.331-4.515,2.935-7.404,4.81c-2.891,1.875-5.568,3.358-8.035,4.446
	c-3.372,1.391-6.533,2.448-9.481,3.176c-2.949,0.725-7.043,1.088-12.28,1.088c-8.428,0-15.306-2.364-20.633-7.091
	c-5.327-4.728-7.99-10.885-7.99-18.475c0-8.009,1.892-14.798,5.679-20.37c3.784-5.571,9.402-10.013,16.854-13.325
	c6.97-3.131,15.276-5.389,24.922-6.775c9.644-1.384,20.083-2.409,31.319-3.072c0.065-0.361,0.197-0.947,0.396-1.761
	c0.197-0.812,0.297-1.729,0.297-2.753c0-4.269-1.984-7.26-5.953-8.974c-3.969-1.714-9.892-2.571-17.769-2.571
	c-5.351,0-11.259,0.902-17.722,2.707c-6.465,1.804-11.32,3.308-14.567,4.511h-2.977l4.782-23.998
	c3.789-0.961,9.653-2.044,17.592-3.248c7.939-1.202,15.848-1.804,23.728-1.804c15.879,0,27.531,2.075,34.96,6.225
	c7.428,4.15,11.142,10.586,11.142,19.307c0,1.204-0.105,2.767-0.315,4.691c-0.212,1.926-0.496,3.609-0.857,5.052l-15.875,68.927
	h-32.31L1260.083,294.137z M1268.723,257.044c-5.805,0.482-11.247,1.053-16.326,1.714c-5.079,0.663-9.402,1.624-12.969,2.887
	c-3.688,1.323-6.5,3.188-8.435,5.593c-1.936,2.406-2.902,5.594-2.902,9.563c0,3.489,1.284,5.94,3.854,7.353
	c2.569,1.414,6.304,2.12,11.202,2.12c3.204,0,6.636-0.734,10.295-2.203c3.658-1.469,7.089-3.342,10.295-5.622L1268.723,257.044z"/>
<path d="M1443.982,203.544l-62.521,101.315h-36.988l-15.337-101.315h33.488l7.379,69.896l39.104-69.896H1443.982z"/>
<path d="M1496.629,307.657c-17.277,0-30.611-3.822-40.002-11.468c-9.391-7.645-14.088-18.208-14.088-31.693
	c0-9.209,1.535-17.667,4.605-25.373s7.492-14.477,13.273-20.316c5.537-5.658,12.459-10.143,20.766-13.454
	c8.307-3.31,17.428-4.966,27.359-4.966c15.109,0,26.5,3.058,34.174,9.171c7.676,6.115,11.514,15.136,11.514,27.062
	c0,4.096-0.408,8.101-1.221,12.017c-0.814,3.916-1.885,7.801-3.211,11.655h-75.412c0,0.361,0,0.708,0,1.038c0,0.331,0,0.677,0,1.038
	c0,7.037,2.471,12.54,7.416,16.51s12.512,5.955,22.705,5.955c7.113,0,13.852-1.203,20.215-3.609
	c6.361-2.405,11.895-5.082,16.596-8.029h3.619l-6.051,26.073c-6.32,2.768-12.973,4.858-19.955,6.271
	C1511.947,306.949,1504.514,307.657,1496.629,307.657z M1521.48,241.256c0.18-1.087,0.314-2.083,0.404-2.99
	c0.092-0.906,0.137-1.842,0.137-2.81c0-4.771-1.479-8.427-4.438-10.964c-2.959-2.537-7.215-3.806-12.768-3.806
	c-6.701,0-12.332,1.813-16.891,5.437c-4.559,3.626-8.014,8.669-10.369,15.133H1521.48z"/>
<path d="M1680.896,226.46c0,1.805-0.121,3.76-0.361,5.864c-0.24,2.106-0.631,4.301-1.17,6.586l-15.123,65.95h-32.891l11.52-50.251
	c0.842-3.729,1.5-6.915,1.98-9.559c0.479-2.643,0.721-5.11,0.721-7.402c0-3.909-0.994-6.766-2.98-8.57
	c-1.986-1.805-5.627-2.707-10.926-2.707c-2.588,0-5.568,0.557-8.938,1.669c-3.373,1.114-7.164,2.783-11.379,5.007l-16.496,71.814
	h-32.686l23.406-101.315h32.684l-2.676,11.188c6.686-4.39,12.781-7.818,18.293-10.285c5.512-2.465,11.578-3.699,18.203-3.699
	c9.094,0,16.17,2.196,21.23,6.586C1678.365,211.725,1680.896,218.101,1680.896,226.46z"/>
</svg>
