<?xml version="1.0" encoding="utf-8"?>
<!-- Generator: Adobe Illustrator 15.0.2, SVG Export Plug-In  -->
<!DOCTYPE svg PUBLIC "-//W3C//DTD SVG 1.0//EN" "http://www.w3.org/TR/2001/REC-SVG-20010904/DTD/svg10.dtd" [
	<!ENTITY ns_flows "http://ns.adobe.com/Flows/1.0/">
]>
<svg version="1.0"
	 xmlns="http://www.w3.org/2000/svg" xmlns:xlink="http://www.w3.org/1999/xlink" xmlns:a="http://ns.adobe.com/AdobeSVGViewerExtensions/3.0/"
	 x="0px" y="0px" width="580px" height="580px" viewBox="0 0 580 580" overflow="visible" enable-background="new 0 0 580 580"
	 xml:space="preserve">
<defs>
</defs>
<rect fill="#80BD01" width="580" height="580"/>
<path fill-rule="evenodd" clip-rule="evenodd" fill="#3F3F3F" d="M446.7,195.6c0-6.1-3.2-11.7-8.4-14.7l-139.8-80.5
	c-2.4-1.4-5-2.1-7.7-2.2c-0.2,0-1.2,0-1.4,0c-2.7,0.1-5.3,0.8-7.7,2.2l-139.8,80.5c-5.2,3-8.5,8.6-8.5,14.7l0.3,216.6
	c0,3,1.6,5.8,4.2,7.3c2.6,1.6,5.8,1.6,8.4,0l83.1-47.6c5.3-3.1,8.5-8.6,8.5-14.6V256.1c0-6,3.2-11.6,8.4-14.6l35.4-20.4
	c2.6-1.5,5.5-2.3,8.5-2.3c2.9,0,5.8,0.7,8.4,2.3l35.4,20.4c5.2,3,8.4,8.6,8.4,14.6v101.2c0,6,3.2,11.6,8.5,14.6l83.1,47.6
	c2.6,1.6,5.9,1.6,8.4,0c2.6-1.5,4.2-4.3,4.2-7.3L446.7,195.6z"/>
</svg>
