<?xml version="1.0" encoding="utf-8"?>
<!-- Generator: Adobe Illustrator 15.0.2, SVG Export Plug-In  -->
<!DOCTYPE svg PUBLIC "-//W3C//DTD SVG 1.1//EN" "http://www.w3.org/Graphics/SVG/1.1/DTD/svg11.dtd" [
	<!ENTITY ns_flows "http://ns.adobe.com/Flows/1.0/">
]>
<svg version="1.1"
	 xmlns="http://www.w3.org/2000/svg" xmlns:xlink="http://www.w3.org/1999/xlink" xmlns:a="http://ns.adobe.com/AdobeSVGViewerExtensions/3.0/"
	 x="0px" y="0px" width="580px" height="580px" viewBox="0 0 580 580" overflow="visible" enable-background="new 0 0 580 580"
	 xml:space="preserve">
<defs>
</defs>
<rect fill="#7C7C7C" width="580" height="580"/>
<path fill="#FFFFFF" d="M40.594,250.215c0-7.194,1.255-13.557,3.766-19.079c2.51-5.523,5.813-10.081,9.916-13.682
	c4.099-3.598,8.7-6.315,13.807-8.159c5.104-1.84,10.25-2.762,15.439-2.762c5.186,0,10.332,0.922,15.439,2.762
	c5.103,1.844,9.704,4.562,13.807,8.159c4.099,3.601,7.406,8.158,9.916,13.682c2.51,5.522,3.766,11.885,3.766,19.079v94.392
	c0,7.366-1.255,13.768-3.766,19.204c-2.51,5.441-5.817,9.96-9.916,13.557c-4.103,3.601-8.704,6.319-13.807,8.159
	c-5.107,1.839-10.254,2.761-15.439,2.761c-5.189,0-10.335-0.922-15.439-2.761c-5.107-1.84-9.708-4.559-13.807-8.159
	c-4.103-3.597-7.406-8.115-9.916-13.557c-2.511-5.437-3.766-11.838-3.766-19.204V250.215z M66.2,344.606
	c0,6.193,1.714,10.756,5.146,13.682c3.428,2.93,7.488,4.394,12.175,4.394c4.684,0,8.744-1.464,12.176-4.394
	c3.428-2.926,5.146-7.488,5.146-13.682v-94.392c0-6.189-1.718-10.752-5.146-13.682c-3.432-2.927-7.492-4.394-12.176-4.394
	c-4.687,0-8.747,1.467-12.175,4.394c-3.432,2.93-5.146,7.492-5.146,13.682V344.606z"/>
<path fill="#FFFFFF" d="M147.536,250.215c0-7.194,1.255-13.557,3.766-19.079c2.51-5.523,5.813-10.081,9.916-13.682
	c4.099-3.598,8.7-6.315,13.807-8.159c5.104-1.84,10.25-2.762,15.439-2.762c5.186,0,10.332,0.922,15.439,2.762
	c5.103,1.844,9.704,4.562,13.807,8.159c4.099,3.601,7.406,8.158,9.916,13.682c2.51,5.522,3.766,11.885,3.766,19.079v94.392
	c0,7.366-1.255,13.768-3.766,19.204c-2.51,5.441-5.817,9.96-9.916,13.557c-4.103,3.601-8.704,6.319-13.807,8.159
	c-5.107,1.839-10.254,2.761-15.439,2.761c-5.189,0-10.335-0.922-15.439-2.761c-5.107-1.84-9.708-4.559-13.807-8.159
	c-4.103-3.597-7.406-8.115-9.916-13.557c-2.511-5.437-3.766-11.838-3.766-19.204V250.215z M173.142,344.606
	c0,6.193,1.714,10.756,5.146,13.682c3.428,2.93,7.488,4.394,12.175,4.394c4.684,0,8.744-1.464,12.176-4.394
	c3.428-2.926,5.146-7.488,5.146-13.682v-94.392c0-6.189-1.718-10.752-5.146-13.682c-3.432-2.927-7.492-4.394-12.176-4.394
	c-4.687,0-8.747,1.467-12.175,4.394c-3.432,2.93-5.146,7.492-5.146,13.682V344.606z"/>
<path fill="#FFFFFF" d="M337.322,346.865c0,5.523-1.047,10.795-3.138,15.816c-2.095,5.021-4.982,9.414-8.661,13.18
	c-3.683,3.766-7.994,6.777-12.929,9.037c-4.938,2.26-10.253,3.389-15.941,3.389c-4.856,0-9.791-0.67-14.812-2.008
	s-9.54-3.641-13.556-6.903c-4.017-3.264-7.323-7.571-9.916-12.929c-2.597-5.354-3.891-12.133-3.891-20.335v-98.408
	c0-5.856,1.004-11.297,3.012-16.317c2.008-5.021,4.852-9.371,8.536-13.055c3.679-3.679,8.072-6.566,13.18-8.66
	c5.103-2.091,10.751-3.139,16.945-3.139c5.856,0,11.297,1.048,16.317,3.139c5.021,2.094,9.371,5.021,13.054,8.786
	c3.679,3.766,6.566,8.284,8.661,13.556c2.091,5.272,3.138,11.007,3.138,17.197v10.041h-25.606v-8.535
	c0-5.021-1.424-9.371-4.268-13.055c-2.848-3.679-6.696-5.522-11.548-5.522c-6.363,0-10.587,1.969-12.678,5.899
	c-2.095,3.935-3.138,8.912-3.138,14.938v91.379c0,5.189,1.13,9.539,3.389,13.054s6.315,5.272,12.175,5.272
	c1.671,0,3.472-0.291,5.397-0.879c1.922-0.585,3.68-1.546,5.272-2.887c1.589-1.338,2.887-3.178,3.891-5.523
	c1.004-2.342,1.506-5.271,1.506-8.786v-8.787h25.606V346.865z"/>
<path fill="#FFFFFF" d="M441.001,259.503h-25.606v-5.773c0-5.856-1.381-10.921-4.142-15.188c-2.762-4.268-7.406-6.401-13.933-6.401
	c-3.515,0-6.401,0.671-8.661,2.009c-2.26,1.341-4.017,3.056-5.272,5.146c-1.255,2.095-2.134,4.52-2.636,7.28
	c-0.502,2.762-0.753,5.648-0.753,8.661c0,3.515,0.125,6.488,0.376,8.912c0.251,2.428,0.879,4.519,1.883,6.276
	c1.004,1.757,2.467,3.307,4.393,4.644c1.922,1.342,4.558,2.68,7.908,4.017l19.581,7.783c5.688,2.177,10.293,4.73,13.807,7.656
	c3.515,2.93,6.233,6.362,8.159,10.293c1.922,3.934,3.22,8.453,3.891,13.556c0.667,5.107,1.004,10.921,1.004,17.447
	c0,7.531-0.753,14.521-2.259,20.963c-1.506,6.444-3.978,11.967-7.406,16.568c-3.432,4.605-7.994,8.245-13.682,10.92
	c-5.691,2.676-12.638,4.017-20.836,4.017c-6.194,0-11.968-1.09-17.322-3.263c-5.358-2.174-9.959-5.146-13.808-8.912
	c-3.852-3.766-6.903-8.241-9.163-13.431c-2.26-5.186-3.389-10.795-3.389-16.82v-9.539h25.606v8.033
	c0,4.688,1.381,8.912,4.142,12.678c2.762,3.766,7.406,5.648,13.933,5.648c4.35,0,7.739-0.628,10.167-1.883
	c2.424-1.256,4.268-3.013,5.523-5.272c1.255-2.259,2.048-5.06,2.385-8.41c0.333-3.346,0.502-7.028,0.502-11.045
	c0-4.684-0.169-8.536-0.502-11.548c-0.337-3.013-1.047-5.438-2.134-7.28c-1.09-1.84-2.597-3.347-4.519-4.52
	c-1.926-1.169-4.479-2.424-7.657-3.766l-18.326-7.531c-11.046-4.519-18.452-10.5-22.217-17.949
	c-3.766-7.445-5.648-16.776-5.648-27.991c0-6.691,0.918-13.054,2.762-19.079c1.839-6.024,4.558-11.21,8.159-15.564
	c3.597-4.35,8.159-7.821,13.682-10.418c5.523-2.593,11.964-3.892,19.331-3.892c6.358,0,12.175,1.173,17.447,3.515
	c5.272,2.346,9.791,5.44,13.556,9.289c3.766,3.852,6.653,8.158,8.661,12.929c2.008,4.77,3.012,9.665,3.012,14.686V259.503z"/>
<path fill="#FFFFFF" d="M542.922,259.503h-25.606v-5.773c0-5.856-1.381-10.921-4.142-15.188c-2.762-4.268-7.406-6.401-13.933-6.401
	c-3.515,0-6.401,0.671-8.661,2.009c-2.26,1.341-4.017,3.056-5.272,5.146c-1.255,2.095-2.134,4.52-2.636,7.28
	c-0.502,2.762-0.753,5.648-0.753,8.661c0,3.515,0.125,6.488,0.376,8.912c0.251,2.428,0.879,4.519,1.883,6.276
	c1.004,1.757,2.467,3.307,4.393,4.644c1.922,1.342,4.558,2.68,7.908,4.017l19.581,7.783c5.688,2.177,10.293,4.73,13.807,7.656
	c3.515,2.93,6.233,6.362,8.159,10.293c1.922,3.934,3.22,8.453,3.891,13.556c0.667,5.107,1.004,10.921,1.004,17.447
	c0,7.531-0.753,14.521-2.259,20.963c-1.506,6.444-3.978,11.967-7.406,16.568c-3.432,4.605-7.994,8.245-13.682,10.92
	c-5.691,2.676-12.638,4.017-20.836,4.017c-6.194,0-11.968-1.09-17.322-3.263c-5.358-2.174-9.959-5.146-13.808-8.912
	c-3.852-3.766-6.903-8.241-9.163-13.431c-2.26-5.186-3.389-10.795-3.389-16.82v-9.539h25.606v8.033
	c0,4.688,1.381,8.912,4.142,12.678c2.762,3.766,7.406,5.648,13.933,5.648c4.35,0,7.739-0.628,10.167-1.883
	c2.424-1.256,4.268-3.013,5.523-5.272c1.255-2.259,2.048-5.06,2.385-8.41c0.333-3.346,0.502-7.028,0.502-11.045
	c0-4.684-0.169-8.536-0.502-11.548c-0.337-3.013-1.047-5.438-2.134-7.28c-1.09-1.84-2.597-3.347-4.519-4.52
	c-1.926-1.169-4.479-2.424-7.657-3.766l-18.326-7.531c-11.046-4.519-18.452-10.5-22.217-17.949
	c-3.766-7.445-5.648-16.776-5.648-27.991c0-6.691,0.918-13.054,2.762-19.079c1.839-6.024,4.558-11.21,8.159-15.564
	c3.597-4.35,8.159-7.821,13.682-10.418c5.523-2.593,11.964-3.892,19.331-3.892c6.358,0,12.175,1.173,17.447,3.515
	c5.272,2.346,9.791,5.44,13.556,9.289c3.766,3.852,6.653,8.158,8.661,12.929c2.008,4.77,3.012,9.665,3.012,14.686V259.503z"/>
</svg>
