<?xml version="1.0" encoding="utf-8"?>
<!-- Generator: Adobe Illustrator 15.0.2, SVG Export Plug-In  -->
<!DOCTYPE svg PUBLIC "-//W3C//DTD SVG 1.0//EN" "http://www.w3.org/TR/2001/REC-SVG-20010904/DTD/svg10.dtd" [
	<!ENTITY ns_flows "http://ns.adobe.com/Flows/1.0/">
]>
<svg version="1.0"
	 xmlns="http://www.w3.org/2000/svg" xmlns:xlink="http://www.w3.org/1999/xlink" xmlns:a="http://ns.adobe.com/AdobeSVGViewerExtensions/3.0/"
	 x="0px" y="0px" width="654px" height="304px" viewBox="0 0 654 304" overflow="visible" enable-background="new 0 0 654 304"
	 xml:space="preserve">
<defs>
</defs>
<rect fill="#415178" width="654" height="304"/>
<polygon fill="#6A8D9C" points="0,0 0,304 325.1,304 169.8,0 "/>
<path fill="#D9DBDA" d="M152.8,142.2l-20.3-7c-9.1-3-14.4-6.1-14.4-14.1c0-8.9,8.9-12.9,20.5-12.9c15,0,27.2,5.3,38.4,13.5V95.4
	c-10.6-6.3-23.4-10.1-39.3-10.1c-25.3,0-46,13.1-46,37.2c0,21.5,12.7,31.5,31.9,37.8l19,6.3c9.7,3.6,15.2,6.8,15.2,15.2
	c0,10.1-9.9,14.1-23,14.1c-15,0-29.8-5.7-41.4-14.4v26.6c9.3,5.9,24.5,11,41.8,11c27.4,0,49.2-12.9,49.2-38.4
	C184.4,161.4,174.5,149.6,152.8,142.2z M238.5,97h-26.2v25.5h-17.9v21.1h17.9v73.2h26.2v-73.2h20.1v-21.1h-20.1V97z M307.9,120.5
	c-12.5,0-24.7,3.6-31.5,7.8v22.6c7.4-4.9,16.3-7.6,25.8-7.6c13.3,0,21.1,5.7,21.1,14.8v5.3c-3.8-2.7-12.9-5.5-21.1-5.5
	c-20.7,0-36.5,12.2-36.5,30.2c0,19.6,15.8,30.6,34.8,30.6c10.3,0,19.6-3.6,22.8-6.8v5.1h25.1v-60.2
	C348.4,133.8,333.9,120.5,307.9,120.5z M323.3,191.2c-2.3,5.1-9.3,8.2-16.7,8.2c-8.2,0-16.7-3.4-16.7-11.6c0-8,8.4-11.6,16.7-11.6
	c7.4,0,14.4,3.2,16.7,8.2V191.2z M412.2,161.2l-10.6-3.2c-6.5-2.1-10.1-3.8-10.1-8.9c0-5.3,5.5-8,12.7-8c10.8,0,20.5,4.9,28.9,11.6
	v-23.9c-8.4-5.5-18.2-8.4-30.2-8.4c-21.1,0-36.9,11.2-36.9,29.6c0,16.3,10.3,24.1,26.8,28.5l9.1,2.5c6.5,2.1,10.8,4,10.8,9.3
	c0,5.7-6.1,8-13.9,8c-10.3,0-23.4-4.9-32.5-13.1v24.3c8,6.1,20.9,9.5,33.4,9.5c22.2,0,38.8-10.1,38.8-29.1
	C438.4,174.7,430.1,166.3,412.2,161.2z M469,80.4c-8.4,0-15.6,6.3-15.6,15c0,8.9,7.2,15,15.6,15c8.2,0,15.4-6.1,15.4-15
	C484.4,86.7,477.2,80.4,469,80.4z M455.9,216.9h26.2v-94.4h-26.2V216.9z M546.9,161.2l-10.6-3.2c-6.5-2.1-10.1-3.8-10.1-8.9
	c0-5.3,5.5-8,12.7-8c10.8,0,20.5,4.9,28.9,11.6v-23.9c-8.4-5.5-18.2-8.4-30.2-8.4c-21.1,0-36.9,11.2-36.9,29.6
	c0,16.3,10.3,24.1,26.8,28.5l9.1,2.5c6.5,2.1,10.8,4,10.8,9.3c0,5.7-6.1,8-13.9,8c-10.3,0-23.4-4.9-32.5-13.1v24.3
	c8,6.1,20.9,9.5,33.4,9.5c22.2,0,38.8-10.1,38.8-29.1C573,174.7,564.8,166.3,546.9,161.2z"/>
</svg>
