<?xml version="1.0" encoding="utf-8"?>
<!-- Generator: Adobe Illustrator 15.0.2, SVG Export Plug-In  -->
<!DOCTYPE svg PUBLIC "-//W3C//DTD SVG 1.1//EN" "http://www.w3.org/Graphics/SVG/1.1/DTD/svg11.dtd" [
	<!ENTITY ns_flows "http://ns.adobe.com/Flows/1.0/">
]>
<svg version="1.1"
	 xmlns="http://www.w3.org/2000/svg" xmlns:xlink="http://www.w3.org/1999/xlink" xmlns:a="http://ns.adobe.com/AdobeSVGViewerExtensions/3.0/"
	 x="0px" y="0px" width="380px" height="380px" viewBox="43 50 380 380" overflow="visible" enable-background="new 43 50 380 380"
	 xml:space="preserve">
<defs>
</defs>
<rect fill="#FFFFFF" width="2628" height="904"/>
<rect x="43" y="50" fill="#FFDC76" width="380" height="380"/>
<path fill="#D1A41A" d="M122.769,326.425c3.801,4.687,8.024,9.437,12.672,14.213c-13.532,4.071-22.405,11.633-27.939,18.311
	c-8.757,10.567-13.392,24.524-12.325,36.503H71.871C76.545,385.309,95.201,356.008,122.769,326.425z"/>
<path fill="#D1A41A" d="M392.738,401.808h-28.339c-65.007-33.923-122.08-57.843-182.709-63.069c0.128-8.436,1.63-17.988,4.52-28.632
	l-5.585-1.502c-2.967,10.939-4.52,20.839-4.7,29.699c-6.317-0.424-12.673-0.629-19.093-0.629c-5.432,0-10.388,0.501-14.907,1.374
	c-5.893-5.881-10.913-11.504-15.177-16.832c27.965-29.122,74.021-55.47,114.107-65.382c11.287,37.518,35.516,63.224,64.917,80.519
	c2.158-1.232,4.276-2.517,6.356-3.877l51.295,55.224l2.247-0.193c14.007-1.206,21.969,6.395,24.075,8.757
	C391.3,398.982,392.224,400.562,392.738,401.808z"/>
<path fill="#FFDC76" d="M367.712,217.094c1.041,50.961-24.959,91.522-61.36,112.323c-61.785-30.776-73.418-108.766-62.89-150.598
	c2.927,15.999,8.257,26.027,19.761,30.944c25.089-7.178,59.614-7.744,85.051-0.732c10.593-7.704,14.701-19.478,16.948-29.762
	C368.021,191.235,367.7,217.094,367.712,217.094z"/>
<polygon points="212.298,265.344 221.726,293.277 193.094,274.073 "/>
<polygon points="184.714,277.565 194.84,295.023 173.541,284.2 "/>
<polygon points="161.669,291.183 166.557,308.642 151.892,298.515 "/>
<polygon points="317.746,337.971 308.669,351.938 324.729,344.605 "/>
<polygon points="332.062,354.033 317.398,365.207 337.649,359.969 "/>
<polygon points="296.447,202.494 307.271,226.237 314.254,202.146 "/>
<polygon points="241.629,237.061 258.737,246.139 243.374,247.188 "/>
<polygon points="245.818,255.568 256.292,259.758 247.564,262.201 "/>
<polygon points="368.027,243.696 354.06,249.632 365.582,251.378 "/>
<polygon points="362.44,260.805 351.616,263.948 360.345,267.09 "/>
<rect x="236.007" y="287.011" width="33.697" height="4.159"/>
<rect x="236.007" y="277.024" width="33.697" height="4.161"/>
<rect x="338.904" y="287.011" width="33.697" height="4.159"/>
<rect x="338.904" y="277.024" width="33.697" height="4.161"/>
<path d="M327.027,252.361h-34.908h-3.877h-16.128v-3.744h17.089c2.104-9.01,2.521-17.622-0.018-21.988
	c-1.083-1.856-2.58-2.724-4.718-2.724c-9.77,0-13.806,10.332-13.974,10.771l0.002-0.002l-3.505-1.315
	c0.2-0.539,5.09-13.197,17.477-13.197c3.458,0,6.207,1.587,7.951,4.584c3.094,5.316,2.73,14.515,0.634,23.872h29.986
	c3.983-11.704,12.303-17.222,26.2-17.222v3.743c-15.064,0-19.284,6.386-22.298,13.479h16.361l-0.037,3.726L327.027,252.361z"/>
<path d="M329.489,270.852l0.023-0.004c-4.441-6.549-5.848-12.14-3.991-18.506l-3.814,0.019c-1.328,4.238-0.796,10.623,2.478,16.101
	h-38.103c2.318-4.643,4.468-10.304,6.037-16.101h-3.877c-1.731,6.146-4.162,12.229-6.898,17.048l-0.886,1.557l21.381,13.459
	l-12.036,7.933l2.061,3.127l13.455-8.87l14.523,9.478l1.995-3.168l-13.467-8.331c0,0,20.135-13.079,21.136-13.717
	C329.499,270.867,329.495,270.859,329.489,270.852z M305.272,282.162l-15.815-9.957l30.907,0.007L305.272,282.162z"/>
<path d="M373.996,212.579c-0.023-6.511-2.051-34.025-5.777-41.602c-10.104,3.84-28.491,16.28-32.653,29.002
	c-19.942-2.978-42.424-2.625-62.12,0.782c-3.29-13.687-19.804-24.162-32.262-30.063c-5.256,8.868-7.584,29.429-6.991,44.014
	c-0.022,0.016-0.047,0.03-0.07,0.047c2.312,61.246,32.357,99.379,71.646,122.49c40.421-23.097,69.297-68.123,68.179-124.699
	C373.965,212.561,373.982,212.569,373.996,212.579z M340.36,200.771c0.148,0.026,0.293,0.054,0.441,0.081
	C340.656,200.825,340.509,200.797,340.36,200.771z M337.848,200.337c0.354,0.057,0.709,0.121,1.065,0.181
	C338.557,200.458,338.204,200.396,337.848,200.337z M367.707,216.998c1.042,50.961-24.959,91.521-61.359,112.323
	c-61.783-30.785-73.422-108.767-62.887-150.596c2.932,15.992,8.25,26.022,19.766,30.942c25.08-7.179,59.607-7.745,85.038-0.731
	c10.601-7.707,14.71-19.478,16.955-29.762C368.023,191.142,367.7,216.993,367.707,216.998z"/>
<path d="M394.057,393.309c-6.345-7.098-18.775-10.457-29.156-10.209c-7.366-8.77-50.079-53.749-50.079-53.749l-2.961,3.728
	l51.566,55.517l2.239-0.192c14.011-1.2,21.976,6.399,24.083,8.756c1.547,1.729,2.479,3.307,2.986,4.544h-28.343
	c-65.001-33.917-122.079-57.835-182.707-63.059c0.133-8.438,1.635-17.988,4.517-28.631l-5.576-1.511
	c-2.964,10.94-4.524,20.847-4.7,29.702c-6.317-0.418-12.676-0.636-19.09-0.636c-5.44,0-10.395,0.506-14.912,1.383
	c-5.894-5.89-10.914-11.503-15.181-16.831c28.165-29.339,74.663-55.851,114.958-65.601l-1.303-5.645
	c-43.388,10.463-90.88,38.949-117.344,66.461c-12.281-16.576-17.153-30.179-18.601-40.486c-1.828-13.02,1.28-24.963,8.986-34.539
	c12.065-14.989,29.21-16.044,46.835-13.081c-0.344,2.784,0.022,5.444,1.138,7.091c4.662,6.885,29.716,9.304,44.671,2.632
	c-11.037-15.465-33.392-23.016-39.585-19.991c-2.053,1.002-3.6,2.842-4.661,4.989c-6.093-1.09-12.144-1.901-16.567-1.869
	c-15.545,0.114-27.43,5.546-36.331,16.605c-8.733,10.85-12.263,24.324-10.207,38.964c1.945,13.867,8.812,28.615,20.318,43.91
	c-1.911,2.05-3.759,4.075-5.537,6.064c-28.047,31.382-48.548,65.034-48.548,70.61v2.889h37l-0.648-3.426
	c-2.09-11.042,2.083-24.846,10.631-35.161c5.365-6.477,14.251-13.868,28.205-17.279c12.407,12.109,28.216,24.969,45.812,37.376
	h27.494v-2.889c0-3.26-1.616-6.114-4.552-8.034c-4.343-2.84-11.049-3.231-17.207-1.131c-5.872-6.539-9.164-15.275-9.875-26.125
	c59.672,5.284,116.748,29.381,181.149,63.024h35.436l0.464-2.322C399.536,401.853,397.733,397.423,394.057,393.309z
	 M107.499,358.852c-8.752,10.563-13.391,24.516-12.327,36.496H71.863c4.684-10.135,23.338-39.434,50.901-69.026
	c3.798,4.694,8.029,9.437,12.676,14.218C121.907,344.606,113.035,352.171,107.499,358.852z"/>
</svg>
